<?xml version="1.0" standalone="no"?>
<!DOCTYPE svg PUBLIC "-//W3C//DTD SVG 1.1//EN"
  "http://www.w3.org/Graphics/SVG/1.1/DTD/svg11.dtd">
<svg width="3814.96px" height="2035.27px" version="1.1"
    xmlns="http://www.w3.org/2000/svg"
    xmlns:xlink="http://www.w3.org/1999/xlink">
<desc>Veusz output document</desc>
<defs>
<clipPath id="c0">
<path d="m0,0l3814.96,0l0,2035.27l-3814.96,0l0,-2035.27"/>
</clipPath>
<clipPath id="c1">
<path d="m188.97,519.68l2929.13,0l0,1270.86l-2929.13,0l0,-1270.86"/>
</clipPath>
<clipPath id="c2">
<path d="m3166.41,529.56l113.38,0l0,79.7l-113.38,0l0,-79.7"/>
</clipPath>
</defs>
<g stroke-linejoin="bevel" stroke-linecap="square" stroke="#000000" fill-rule="evenodd">
<g clip-path="url(#c0)">
<g fill="none" stroke="none" stroke-width="0.1">
<path d="m188.97,519.68l2929.13,0l0,1270.86l-2929.13,0l0,-1270.86"/>
</g>
</g>
<g clip-path="url(#c1)">
<g fill="#335da7" stroke="none" stroke-width="0.1">
<path d="m314.51,1205.25l41.84,-21.97l41.84,-10.85l41.84,-13.2l41.84,-20.16l41.84,-20.65l41.84,-9.71l41.84,0.11l41.84,-4.97l41.84,8.02l41.84,-11.82l41.84,-3.74l41.84,-19.55l41.84,-11.25l41.84,-9.41l41.84,-0.79l41.84,-12.53l41.84,-18.45l41.84,-5.21l41.84,-11.78l41.84,-27.34l41.84,-34.7l41.84,-25.91l41.84,-25.25l41.84,-22.32l41.84,-6.97l41.84,2.77l41.84,-46.16l41.84,-15.27l41.84,-13.45l41.84,-16.69l41.84,-13l41.84,-10.06l41.84,-11.99l41.84,-14.38l41.84,-15.77l41.84,-12.99l41.84,80.4l41.84,-20.14l41.84,-28.09l41.84,-9.26l41.84,-3.26l41.84,-4.9l41.84,-8.18l41.84,-8.72l41.84,-8.04l41.84,-6.93l41.84,-6.08l41.84,-4.89l41.84,-3.66l41.84,-2.29l41.84,-0.48l41.84,1.52l41.84,2.16l41.84,2.7l41.84,3.13l41.84,2.84l41.84,2.77l41.84,2.99l41.84,3.33l41.84,3.81l41.84,4.15l41.84,4.62l41.84,4.83l41.84,5.16l41.84,5.51l41.84,5.69l41.84,0.4l0,1071.74l-2929.13,0l0,-591.23l41.84,5.13l41.84,4.58l41.84,-3.77"/>
</g>
<g fill="none" stroke="none" stroke-width="0.1">
<polyline fill="none" points="188.97,1199.31 230.82,1204.45 272.66,1209.03 314.51,1205.25 356.35,1183.28 398.2,1172.42 440.04,1159.22 481.88,1139.05 523.73,1118.4 565.57,1108.68 607.42,1108.79 649.26,1103.82 691.11,1111.85 732.95,1100.02 774.8,1096.27 816.64,1076.72 858.49,1065.46 900.33,1056.04 942.18,1055.25 984.02,1042.71 1025.87,1024.26 1067.71,1019.04 1109.56,1007.26 1151.4,979.92 1193.25,945.22 1235.09,919.3 1276.94,894.04 1318.78,871.72 1360.62,864.74 1402.47,867.52 1444.31,821.35 1486.16,806.08 1528,792.63 1569.85,775.93 1611.69,762.92 1653.54,752.85 1695.38,740.85 1737.23,726.47 1779.07,710.7 1820.92,697.71 1862.76,778.11 1904.61,757.96 1946.45,729.86 1988.3,720.6 2030.14,717.33 2071.99,712.43 2113.83,704.24 2155.68,695.52 2197.52,687.47 2239.37,680.54 2281.21,674.45 2323.05,669.56 2364.9,665.9 2406.74,663.6 2448.59,663.12 2490.43,664.64 2532.28,666.8 2574.12,669.51 2615.97,672.65 2657.81,675.49 2699.66,678.27 2741.5,681.27 2783.35,684.6 2825.19,688.41 2867.04,692.57 2908.88,697.19 2950.73,702.02 2992.57,707.19 3034.42,712.7 3076.26,718.39 3118.11,718.8"/>
</g>
<g fill="#003591" stroke="none" stroke-width="0.1">
<path d="m314.51,1205.25l41.84,-21.97l41.84,-10.85l41.84,-13.2l41.84,-20.16l41.84,-20.65l41.84,-9.71l41.84,0.11l41.84,-4.97l41.84,8.02l41.84,-11.82l41.84,-3.74l41.84,-19.55l41.84,-11.25l41.84,-9.41l41.84,-0.79l41.84,-12.53l41.84,-18.45l41.84,-5.21l41.84,-11.78l41.84,-27.34l41.84,-34.7l41.84,-25.91l41.84,-25.25l41.84,-22.32l41.84,-6.97l41.84,2.77l41.84,-46.16l41.84,-15.27l41.84,-13.45l41.84,-16.69l41.84,-13l41.84,-10.06l41.84,-11.99l41.84,-14.38l41.84,-14.73l0,1078.8l-1590.1,0l0,-591.23l41.84,5.13l41.84,4.58l41.84,-3.77"/>
</g>
<g fill="none" stroke="none" stroke-width="0.1">
<polyline fill="none" points="188.97,1199.31 230.82,1204.45 272.66,1209.03 314.51,1205.25 356.35,1183.28 398.2,1172.42 440.04,1159.22 481.88,1139.05 523.73,1118.4 565.57,1108.68 607.42,1108.79 649.26,1103.82 691.11,1111.85 732.95,1100.02 774.8,1096.27 816.64,1076.72 858.49,1065.46 900.33,1056.04 942.18,1055.25 984.02,1042.71 1025.87,1024.26 1067.71,1019.04 1109.56,1007.26 1151.4,979.92 1193.25,945.22 1235.09,919.3 1276.94,894.04 1318.78,871.72 1360.62,864.74 1402.47,867.52 1444.31,821.35 1486.16,806.08 1528,792.63 1569.85,775.93 1611.69,762.92 1653.54,752.85 1695.38,740.85 1737.23,726.47 1779.07,711.74"/>
</g>
<g fill="none" stroke-dasharray="16.66,33.33" stroke-width="8.33">
<polyline fill="none" points="1779.07,711.74 1820.92,699.43 1862.76,686.19 1904.61,673.94 1946.45,661.55 1988.3,648.86 2030.14,637.06 2071.99,626.33 2113.83,616.17 2155.68,606.43 2197.52,597.91 2239.37,590.55 2281.21,583.98 2323.05,578.54 2364.9,574.2 2406.74,571.26 2448.59,570.32 2490.43,571.64 2532.28,573.64 2574.12,576 2615.97,578.86 2657.81,581.82 2699.66,584.91 2741.5,588.26 2783.35,591.94 2825.19,596.13 2867.04,600.72 2908.88,605.82 2950.73,611.16 2992.57,616.85 3034.42,622.91 3076.26,629.18 3118.11,629.56"/>
</g>
</g>
<g clip-path="url(#c0)">
<g fill="none" stroke="#999999" stroke-linecap="butt" stroke-width="2.5">
<path d="M188.97,1790.55l-25,0M188.97,1536.37l-25,0M188.97,1282.2l-25,0M188.97,1028.03l-25,0M188.97,773.85l-25,0M188.97,519.68l-25,0"/>
</g>
<g fill="none" stroke="#a7a9ac" stroke-width="0.1">
<path d="m127.62,1766.93c-11.87,0,-15.47,12.6,-15.47,24.87c0,12.27,3.6,24.74,15.47,24.74c11.73,0,15.47,-12.47,15.47,-24.74c0,-12.27,-3.73,-24.87,-15.47,-24.87m0,4.06c8.27,0,10.6,11.4,10.6,20.81c0,9.4,-2.33,20.61,-10.6,20.61c-8.4,0,-10.6,-11.2,-10.6,-20.61c0,-9.4,2.2,-20.81,10.6,-20.81" fill="#a7a9ac" stroke="none" fill-opacity="1"/>
<path d="m54.78,1513.96l-4.26,0l-12,9.87l2.93,3.33l8.53,-7.27l0,41.28l4.8,0l0,-47.22m34.15,-1.2c-11.87,0,-15.47,12.6,-15.47,24.87c0,12.27,3.6,24.74,15.47,24.74c11.73,0,15.47,-12.47,15.47,-24.74c0,-12.27,-3.73,-24.87,-15.47,-24.87m0,4.06c8.27,0,10.6,11.4,10.6,20.81c0,9.4,-2.33,20.61,-10.6,20.61c-8.4,0,-10.6,-11.2,-10.6,-20.61c0,-9.4,2.2,-20.81,10.6,-20.81m38.68,-4.06c-11.87,0,-15.47,12.6,-15.47,24.87c0,12.27,3.6,24.74,15.47,24.74c11.73,0,15.47,-12.47,15.47,-24.74c0,-12.27,-3.73,-24.87,-15.47,-24.87m0,4.06c8.27,0,10.6,11.4,10.6,20.81c0,9.4,-2.33,20.61,-10.6,20.61c-8.4,0,-10.6,-11.2,-10.6,-20.61c0,-9.4,2.2,-20.81,10.6,-20.81" fill="#a7a9ac" stroke="none" fill-opacity="1"/>
<path d="m64.52,1302.74l-25.01,0l17,-16.87c4.13,-4.13,7.67,-8.2,7.67,-14.27c0,-8.6,-6.6,-13,-14.2,-13c-7.4,0,-13.13,4.86,-14.47,11.53l4.73,0.93c1,-4.86,4.66,-8.4,9.73,-8.4c5.06,0,9.33,3.53,9.33,9c0,4.33,-2.8,7.87,-5.66,10.8l-19.34,19.54l0,5l30.21,0l0,-4.26m24.41,-44.15c-11.87,0,-15.47,12.6,-15.47,24.87c0,12.27,3.6,24.74,15.47,24.74c11.73,0,15.47,-12.47,15.47,-24.74c0,-12.27,-3.73,-24.87,-15.47,-24.87m0,4.06c8.27,0,10.6,11.4,10.6,20.81c0,9.4,-2.33,20.61,-10.6,20.61c-8.4,0,-10.6,-11.2,-10.6,-20.61c0,-9.4,2.2,-20.81,10.6,-20.81m38.68,-4.06c-11.87,0,-15.47,12.6,-15.47,24.87c0,12.27,3.6,24.74,15.47,24.74c11.73,0,15.47,-12.47,15.47,-24.74c0,-12.27,-3.73,-24.87,-15.47,-24.87m0,4.06c8.27,0,10.6,11.4,10.6,20.81c0,9.4,-2.33,20.61,-10.6,20.61c-8.4,0,-10.6,-11.2,-10.6,-20.61c0,-9.4,2.2,-20.81,10.6,-20.81" fill="#a7a9ac" stroke="none" fill-opacity="1"/>
<path d="m45.18,1030.16l2.06,0c6.2,0,12.27,2.46,12.27,9.6c0,6.33,-5,10.13,-10.4,10.13c-4.8,0,-8.8,-2.73,-10.4,-7.2l-4.53,1.66c2.66,6.2,8.07,9.67,14.94,9.67c8.2,0,15.2,-5.26,15.2,-14.27c0,-6.33,-4.13,-10.6,-9.53,-11.73l0,-0.13c4.66,-1.26,8.2,-5.26,8.2,-10.8c0,-8.2,-6.4,-12.67,-13.8,-12.67c-5.73,0,-10.4,2.4,-13.34,7.47l4.06,2.13c1.86,-3.6,5.06,-5.53,9,-5.53c5.06,0,9.33,3.6,9.33,8.87c0,6.26,-4.93,8.67,-11,8.67l-2.06,0l0,4.13m43.75,-25.74c-11.87,0,-15.47,12.6,-15.47,24.87c0,12.27,3.6,24.74,15.47,24.74c11.73,0,15.47,-12.47,15.47,-24.74c0,-12.27,-3.73,-24.87,-15.47,-24.87m0,4.06c8.27,0,10.6,11.4,10.6,20.81c0,9.4,-2.33,20.61,-10.6,20.61c-8.4,0,-10.6,-11.2,-10.6,-20.61c0,-9.4,2.2,-20.81,10.6,-20.81m38.68,-4.06c-11.87,0,-15.47,12.6,-15.47,24.87c0,12.27,3.6,24.74,15.47,24.74c11.73,0,15.47,-12.47,15.47,-24.74c0,-12.27,-3.73,-24.87,-15.47,-24.87m0,4.06c8.27,0,10.6,11.4,10.6,20.81c0,9.4,-2.33,20.61,-10.6,20.61c-8.4,0,-10.6,-11.2,-10.6,-20.61c0,-9.4,2.2,-20.81,10.6,-20.81" fill="#a7a9ac" stroke="none" fill-opacity="1"/>
<path d="m59.99,751.44l-6.26,0l-20.01,31.14l0,4.66l21.61,0l0,11.4l4.66,0l0,-11.4l6.93,0l0,-4.2l-6.93,0l0,-31.61m-4.66,31.61l-16.6,0l16.47,-26.21l0.13,0l0,26.21m33.61,-32.81c-11.87,0,-15.47,12.6,-15.47,24.87c0,12.27,3.6,24.74,15.47,24.74c11.73,0,15.47,-12.47,15.47,-24.74c0,-12.27,-3.73,-24.87,-15.47,-24.87m0,4.06c8.27,0,10.6,11.4,10.6,20.81c0,9.4,-2.33,20.61,-10.6,20.61c-8.4,0,-10.6,-11.2,-10.6,-20.61c0,-9.4,2.2,-20.81,10.6,-20.81m38.68,-4.06c-11.87,0,-15.47,12.6,-15.47,24.87c0,12.27,3.6,24.74,15.47,24.74c11.73,0,15.47,-12.47,15.47,-24.74c0,-12.27,-3.73,-24.87,-15.47,-24.87m0,4.06c8.27,0,10.6,11.4,10.6,20.81c0,9.4,-2.33,20.61,-10.6,20.61c-8.4,0,-10.6,-11.2,-10.6,-20.61c0,-9.4,2.2,-20.81,10.6,-20.81" fill="#a7a9ac" stroke="none" fill-opacity="1"/>
<path d="m62.59,497.27l-24.07,0l-0.46,24.34c3,-1.6,6.4,-2.6,9.8,-2.6c6.73,0,11.73,4.33,11.73,11.33c0,6.4,-4.66,11.2,-11.07,11.2c-4.13,0,-7.87,-2.53,-9.53,-6.4l-4.33,1.93c2.6,5.2,7.33,8.6,14.14,8.6c9.33,0,15.67,-6.67,15.67,-15.8c0,-8.8,-6.46,-14.8,-15.34,-14.8c-2.13,0,-4.53,0.33,-6.53,1.06l0.33,-14.6l19.67,0l0,-4.26m26.34,-1.2c-11.87,0,-15.47,12.6,-15.47,24.87c0,12.27,3.6,24.74,15.47,24.74c11.73,0,15.47,-12.47,15.47,-24.74c0,-12.27,-3.73,-24.87,-15.47,-24.87m0,4.06c8.27,0,10.6,11.4,10.6,20.81c0,9.4,-2.33,20.61,-10.6,20.61c-8.4,0,-10.6,-11.2,-10.6,-20.61c0,-9.4,2.2,-20.81,10.6,-20.81m38.68,-4.06c-11.87,0,-15.47,12.6,-15.47,24.87c0,12.27,3.6,24.74,15.47,24.74c11.73,0,15.47,-12.47,15.47,-24.74c0,-12.27,-3.73,-24.87,-15.47,-24.87m0,4.06c8.27,0,10.6,11.4,10.6,20.81c0,9.4,-2.33,20.61,-10.6,20.61c-8.4,0,-10.6,-11.2,-10.6,-20.61c0,-9.4,2.2,-20.81,10.6,-20.81" fill="#a7a9ac" stroke="none" fill-opacity="1"/>
</g>
<g fill="none" stroke="#121618" stroke-width="0.1">
<path d="m135.48,1846.98l-4.26,0l-12,9.87l2.93,3.33l8.53,-7.27l0,41.28l4.8,0l0,-47.22m26.94,47.22l5.53,0l12.87,-20.74c2.33,-3.8,4.26,-7.93,4.26,-12.8c0,-8.8,-6.46,-14.87,-15.34,-14.87c-8.87,0,-15.34,6.06,-15.34,14.87c0,8.6,6.2,14.54,14.4,14.54c2.4,0,5.33,-0.66,6.73,-1.73l0.13,0.13l-13.27,20.61m17.87,-33.55c0,6.06,-4.06,10.67,-10.53,10.67c-6.46,0,-10.53,-4.6,-10.53,-10.67c0,-6.13,4.33,-10.8,10.53,-10.8c6.2,0,10.53,4.66,10.53,10.8m34.21,8.53l0,-0.13c4.2,-1.4,7.13,-5.8,7.13,-10.67c0,-7.67,-6.13,-12.6,-13.34,-12.6c-7.2,0,-13.34,4.93,-13.34,12.6c0,4.86,2.93,9.27,7.13,10.67l0,0.13c-5.13,1.53,-8.93,6.26,-8.93,12.6c0,8.27,7.07,13.6,15.14,13.6c8.07,0,15.14,-5.33,15.14,-13.6c0,-6.33,-3.8,-11.13,-8.93,-12.6m-14.87,-10.53c0,-5.06,3.73,-8.8,8.67,-8.8c4.93,0,8.67,3.73,8.67,8.8c0,4.93,-3.86,8.47,-8.67,8.47c-4.8,0,-8.67,-3.53,-8.67,-8.47m-1.66,22.61c0,-5.66,4.13,-9.87,10.33,-9.87c6.2,0,10.33,4.2,10.33,9.87c0,5.73,-4.13,10.07,-10.33,10.07c-6.2,0,-10.33,-4.33,-10.33,-10.07m49.02,-35.48c-11.87,0,-15.47,12.6,-15.47,24.87c0,12.27,3.6,24.74,15.47,24.74c11.73,0,15.47,-12.47,15.47,-24.74c0,-12.27,-3.73,-24.87,-15.47,-24.87m0,4.06c8.27,0,10.6,11.4,10.6,20.81c0,9.4,-2.33,20.61,-10.6,20.61c-8.4,0,-10.6,-11.2,-10.6,-20.61c0,-9.4,2.2,-20.81,10.6,-20.81" fill="#121618" stroke="none" fill-opacity="1"/>
<path d="m553.93,1846.98l-4.26,0l-12,9.87l2.93,3.33l8.53,-7.27l0,41.28l4.8,0l0,-47.22m26.94,47.22l5.53,0l12.87,-20.74c2.33,-3.8,4.26,-7.93,4.26,-12.8c0,-8.8,-6.46,-14.87,-15.34,-14.87c-8.87,0,-15.34,6.06,-15.34,14.87c0,8.6,6.2,14.54,14.4,14.54c2.4,0,5.33,-0.66,6.73,-1.73l0.13,0.13l-13.27,20.61m17.87,-33.55c0,6.06,-4.06,10.67,-10.53,10.67c-6.46,0,-10.53,-4.6,-10.53,-10.67c0,-6.13,4.33,-10.8,10.53,-10.8c6.2,0,10.53,4.66,10.53,10.8m20.81,33.55l5.53,0l12.87,-20.74c2.33,-3.8,4.26,-7.93,4.26,-12.8c0,-8.8,-6.46,-14.87,-15.34,-14.87c-8.87,0,-15.34,6.06,-15.34,14.87c0,8.6,6.2,14.54,14.4,14.54c2.4,0,5.33,-0.66,6.73,-1.73l0.13,0.13l-13.27,20.61m17.87,-33.55c0,6.06,-4.06,10.67,-10.53,10.67c-6.46,0,-10.53,-4.6,-10.53,-10.67c0,-6.13,4.33,-10.8,10.53,-10.8c6.2,0,10.53,4.66,10.53,10.8m28.01,-14.87c-11.87,0,-15.47,12.6,-15.47,24.87c0,12.27,3.6,24.74,15.47,24.74c11.73,0,15.47,-12.47,15.47,-24.74c0,-12.27,-3.73,-24.87,-15.47,-24.87m0,4.06c8.27,0,10.6,11.4,10.6,20.81c0,9.4,-2.33,20.61,-10.6,20.61c-8.4,0,-10.6,-11.2,-10.6,-20.61c0,-9.4,2.2,-20.81,10.6,-20.81" fill="#121618" stroke="none" fill-opacity="1"/>
<path d="m982.11,1889.94l-25.01,0l17,-16.87c4.13,-4.13,7.67,-8.2,7.67,-14.27c0,-8.6,-6.6,-13,-14.2,-13c-7.4,0,-13.13,4.86,-14.47,11.53l4.73,0.93c1,-4.86,4.66,-8.4,9.73,-8.4c5.06,0,9.33,3.53,9.33,9c0,4.33,-2.8,7.87,-5.66,10.8l-19.34,19.54l0,5l30.21,0l0,-4.26m24.41,-44.15c-11.87,0,-15.47,12.6,-15.47,24.87c0,12.27,3.6,24.74,15.47,24.74c11.73,0,15.47,-12.47,15.47,-24.74c0,-12.27,-3.73,-24.87,-15.47,-24.87m0,4.06c8.27,0,10.6,11.4,10.6,20.81c0,9.4,-2.33,20.61,-10.6,20.61c-8.4,0,-10.6,-11.2,-10.6,-20.61c0,-9.4,2.2,-20.81,10.6,-20.81m38.68,-4.06c-11.87,0,-15.47,12.6,-15.47,24.87c0,12.27,3.6,24.74,15.47,24.74c11.73,0,15.47,-12.47,15.47,-24.74c0,-12.27,-3.73,-24.87,-15.47,-24.87m0,4.06c8.27,0,10.6,11.4,10.6,20.81c0,9.4,-2.33,20.61,-10.6,20.61c-8.4,0,-10.6,-11.2,-10.6,-20.61c0,-9.4,2.2,-20.81,10.6,-20.81m38.68,-4.06c-11.87,0,-15.47,12.6,-15.47,24.87c0,12.27,3.6,24.74,15.47,24.74c11.73,0,15.47,-12.47,15.47,-24.74c0,-12.27,-3.73,-24.87,-15.47,-24.87m0,4.06c8.27,0,10.6,11.4,10.6,20.81c0,9.4,-2.33,20.61,-10.6,20.61c-8.4,0,-10.6,-11.2,-10.6,-20.61c0,-9.4,2.2,-20.81,10.6,-20.81" fill="#121618" stroke="none" fill-opacity="1"/>
<path d="m1400.56,1889.94l-25.01,0l17,-16.87c4.13,-4.13,7.67,-8.2,7.67,-14.27c0,-8.6,-6.6,-13,-14.2,-13c-7.4,0,-13.13,4.86,-14.47,11.53l4.73,0.93c1,-4.86,4.66,-8.4,9.73,-8.4c5.06,0,9.33,3.53,9.33,9c0,4.33,-2.8,7.87,-5.66,10.8l-19.34,19.54l0,5l30.21,0l0,-4.26m24.41,-44.15c-11.87,0,-15.47,12.6,-15.47,24.87c0,12.27,3.6,24.74,15.47,24.74c11.73,0,15.47,-12.47,15.47,-24.74c0,-12.27,-3.73,-24.87,-15.47,-24.87m0,4.06c8.27,0,10.6,11.4,10.6,20.81c0,9.4,-2.33,20.61,-10.6,20.61c-8.4,0,-10.6,-11.2,-10.6,-20.61c0,-9.4,2.2,-20.81,10.6,-20.81m43.22,-2.86l-4.26,0l-12,9.87l2.93,3.33l8.53,-7.27l0,41.28l4.8,0l0,-47.22m34.15,-1.2c-11.87,0,-15.47,12.6,-15.47,24.87c0,12.27,3.6,24.74,15.47,24.74c11.73,0,15.47,-12.47,15.47,-24.74c0,-12.27,-3.73,-24.87,-15.47,-24.87m0,4.06c8.27,0,10.6,11.4,10.6,20.81c0,9.4,-2.33,20.61,-10.6,20.61c-8.4,0,-10.6,-11.2,-10.6,-20.61c0,-9.4,2.2,-20.81,10.6,-20.81" fill="#121618" stroke="none" fill-opacity="1"/>
<path d="m1819.01,1889.94l-25.01,0l17,-16.87c4.13,-4.13,7.67,-8.2,7.67,-14.27c0,-8.6,-6.6,-13,-14.2,-13c-7.4,0,-13.13,4.86,-14.47,11.53l4.73,0.93c1,-4.86,4.66,-8.4,9.73,-8.4c5.06,0,9.33,3.53,9.33,9c0,4.33,-2.8,7.87,-5.66,10.8l-19.34,19.54l0,5l30.21,0l0,-4.26m24.41,-44.15c-11.87,0,-15.47,12.6,-15.47,24.87c0,12.27,3.6,24.74,15.47,24.74c11.73,0,15.47,-12.47,15.47,-24.74c0,-12.27,-3.73,-24.87,-15.47,-24.87m0,4.06c8.27,0,10.6,11.4,10.6,20.81c0,9.4,-2.33,20.61,-10.6,20.61c-8.4,0,-10.6,-11.2,-10.6,-20.61c0,-9.4,2.2,-20.81,10.6,-20.81m52.95,40.08l-25.01,0l17,-16.87c4.13,-4.13,7.67,-8.2,7.67,-14.27c0,-8.6,-6.6,-13,-14.2,-13c-7.4,0,-13.13,4.86,-14.47,11.53l4.73,0.93c1,-4.86,4.66,-8.4,9.73,-8.4c5.06,0,9.33,3.53,9.33,9c0,4.33,-2.8,7.87,-5.66,10.8l-19.34,19.54l0,5l30.21,0l0,-4.26m24.41,-44.15c-11.87,0,-15.47,12.6,-15.47,24.87c0,12.27,3.6,24.74,15.47,24.74c11.73,0,15.47,-12.47,15.47,-24.74c0,-12.27,-3.73,-24.87,-15.47,-24.87m0,4.06c8.27,0,10.6,11.4,10.6,20.81c0,9.4,-2.33,20.61,-10.6,20.61c-8.4,0,-10.6,-11.2,-10.6,-20.61c0,-9.4,2.2,-20.81,10.6,-20.81" fill="#121618" stroke="none" fill-opacity="1"/>
<path d="m2237.45,1889.94l-25.01,0l17,-16.87c4.13,-4.13,7.67,-8.2,7.67,-14.27c0,-8.6,-6.6,-13,-14.2,-13c-7.4,0,-13.13,4.86,-14.47,11.53l4.73,0.93c1,-4.86,4.66,-8.4,9.73,-8.4c5.06,0,9.33,3.53,9.33,9c0,4.33,-2.8,7.87,-5.66,10.8l-19.34,19.54l0,5l30.21,0l0,-4.26m24.41,-44.15c-11.87,0,-15.47,12.6,-15.47,24.87c0,12.27,3.6,24.74,15.47,24.74c11.73,0,15.47,-12.47,15.47,-24.74c0,-12.27,-3.73,-24.87,-15.47,-24.87m0,4.06c8.27,0,10.6,11.4,10.6,20.81c0,9.4,-2.33,20.61,-10.6,20.61c-8.4,0,-10.6,-11.2,-10.6,-20.61c0,-9.4,2.2,-20.81,10.6,-20.81m33.61,21.67l2.06,0c6.2,0,12.27,2.46,12.27,9.6c0,6.33,-5,10.13,-10.4,10.13c-4.8,0,-8.8,-2.73,-10.4,-7.2l-4.53,1.66c2.66,6.2,8.07,9.67,14.94,9.67c8.2,0,15.2,-5.26,15.2,-14.27c0,-6.33,-4.13,-10.6,-9.53,-11.73l0,-0.13c4.66,-1.26,8.2,-5.26,8.2,-10.8c0,-8.2,-6.4,-12.67,-13.8,-12.67c-5.73,0,-10.4,2.4,-13.34,7.47l4.06,2.13c1.86,-3.6,5.06,-5.53,9,-5.53c5.06,0,9.33,3.6,9.33,8.87c0,6.26,-4.93,8.67,-11,8.67l-2.06,0l0,4.13m43.75,-25.74c-11.87,0,-15.47,12.6,-15.47,24.87c0,12.27,3.6,24.74,15.47,24.74c11.73,0,15.47,-12.47,15.47,-24.74c0,-12.27,-3.73,-24.87,-15.47,-24.87m0,4.06c8.27,0,10.6,11.4,10.6,20.81c0,9.4,-2.33,20.61,-10.6,20.61c-8.4,0,-10.6,-11.2,-10.6,-20.61c0,-9.4,2.2,-20.81,10.6,-20.81" fill="#121618" stroke="none" fill-opacity="1"/>
<path d="m2655.9,1889.94l-25.01,0l17,-16.87c4.13,-4.13,7.67,-8.2,7.67,-14.27c0,-8.6,-6.6,-13,-14.2,-13c-7.4,0,-13.13,4.86,-14.47,11.53l4.73,0.93c1,-4.86,4.66,-8.4,9.73,-8.4c5.06,0,9.33,3.53,9.33,9c0,4.33,-2.8,7.87,-5.66,10.8l-19.34,19.54l0,5l30.21,0l0,-4.26m24.41,-44.15c-11.87,0,-15.47,12.6,-15.47,24.87c0,12.27,3.6,24.74,15.47,24.74c11.73,0,15.47,-12.47,15.47,-24.74c0,-12.27,-3.73,-24.87,-15.47,-24.87m0,4.06c8.27,0,10.6,11.4,10.6,20.81c0,9.4,-2.33,20.61,-10.6,20.61c-8.4,0,-10.6,-11.2,-10.6,-20.61c0,-9.4,2.2,-20.81,10.6,-20.81m48.42,-2.86l-6.26,0l-20.01,31.14l0,4.66l21.61,0l0,11.4l4.66,0l0,-11.4l6.93,0l0,-4.2l-6.93,0l0,-31.61m-4.66,31.61l-16.6,0l16.47,-26.21l0.13,0l0,26.21m33.61,-32.81c-11.87,0,-15.47,12.6,-15.47,24.87c0,12.27,3.6,24.74,15.47,24.74c11.73,0,15.47,-12.47,15.47,-24.74c0,-12.27,-3.73,-24.87,-15.47,-24.87m0,4.06c8.27,0,10.6,11.4,10.6,20.81c0,9.4,-2.33,20.61,-10.6,20.61c-8.4,0,-10.6,-11.2,-10.6,-20.61c0,-9.4,2.2,-20.81,10.6,-20.81" fill="#121618" stroke="none" fill-opacity="1"/>
<path d="m3074.35,1889.94l-25.01,0l17,-16.87c4.13,-4.13,7.67,-8.2,7.67,-14.27c0,-8.6,-6.6,-13,-14.2,-13c-7.4,0,-13.13,4.86,-14.47,11.53l4.73,0.93c1,-4.86,4.66,-8.4,9.73,-8.4c5.06,0,9.33,3.53,9.33,9c0,4.33,-2.8,7.87,-5.66,10.8l-19.34,19.54l0,5l30.21,0l0,-4.26m24.41,-44.15c-11.87,0,-15.47,12.6,-15.47,24.87c0,12.27,3.6,24.74,15.47,24.74c11.73,0,15.47,-12.47,15.47,-24.74c0,-12.27,-3.73,-24.87,-15.47,-24.87m0,4.06c8.27,0,10.6,11.4,10.6,20.81c0,9.4,-2.33,20.61,-10.6,20.61c-8.4,0,-10.6,-11.2,-10.6,-20.61c0,-9.4,2.2,-20.81,10.6,-20.81m51.02,-2.86l-24.07,0l-0.46,24.34c3,-1.6,6.4,-2.6,9.8,-2.6c6.73,0,11.73,4.33,11.73,11.33c0,6.4,-4.66,11.2,-11.07,11.2c-4.13,0,-7.87,-2.53,-9.53,-6.4l-4.33,1.93c2.6,5.2,7.33,8.6,14.14,8.6c9.33,0,15.67,-6.66,15.67,-15.8c0,-8.8,-6.46,-14.8,-15.34,-14.8c-2.13,0,-4.53,0.33,-6.53,1.06l0.33,-14.6l19.67,0l0,-4.26m26.34,-1.2c-11.87,0,-15.47,12.6,-15.47,24.87c0,12.27,3.6,24.74,15.47,24.74c11.73,0,15.47,-12.47,15.47,-24.74c0,-12.27,-3.73,-24.87,-15.47,-24.87m0,4.06c8.27,0,10.6,11.4,10.6,20.81c0,9.4,-2.33,20.61,-10.6,20.61c-8.4,0,-10.6,-11.2,-10.6,-20.61c0,-9.4,2.2,-20.81,10.6,-20.81" fill="#121618" stroke="none" fill-opacity="1"/>
<path d="m2248.3,2011.68l3.6,0l0,-16.75l19.3,0l0,16.75l3.6,0l0,-35.4l-3.6,0l0,15.35l-19.3,0l0,-15.35l-3.6,0l0,35.4m39.15,-23.4l-3.4,0l0,23.4l3.4,0l0,-23.4m0.7,-9c0,-1.4,-1.2,-2.4,-2.4,-2.4c-1.2,0,-2.4,1,-2.4,2.4c0,1.4,1.2,2.4,2.4,2.4c1.2,0,2.4,-1,2.4,-2.4m23.4,12.6c-1.5,-2.65,-4.95,-4.2,-8.2,-4.2c-4.25,0,-8.35,2.05,-8.35,6.8c0,4.45,3.95,5.65,6.7,6.3c4.45,1.05,6.9,2.05,6.9,4.5c0,3.05,-2.6,4.1,-5.5,4.1c-2.75,0,-5.3,-1.6,-6.5,-3.65l-2.7,2c2.15,3.15,5.7,4.55,9.25,4.55c4.3,0,8.8,-1.9,8.8,-7.25c0,-3.65,-2.6,-5.7,-8.1,-6.85c-3.85,-0.8,-5.6,-1.8,-5.6,-4c0,-2.6,2.5,-3.65,4.95,-3.65c2.6,0,4.75,1.35,5.75,3.3l2.6,-1.95m17.7,-3.6l-6.6,0l0,-6.6l-3.4,0l0,6.6l-4.85,0l0,2.85l4.85,0l0,14.6c0,5.15,3.5,6.25,6,6.25c1.55,0,2.8,-0.25,4,-0.7l-0.15,-2.95c-0.9,0.45,-2,0.75,-2.95,0.75c-2.05,0,-3.5,-0.8,-3.5,-4.3l0,-13.65l6.6,0l0,-2.85m28.55,11.7c0,-7.05,-5.2,-12.3,-12.5,-12.3c-7.25,0,-12.45,5.25,-12.45,12.3c0,7.05,5.2,12.3,12.45,12.3c7.3,0,12.5,-5.25,12.5,-12.3m-3.6,0c0,5.25,-3.45,9.4,-8.9,9.4c-5.4,0,-8.85,-4.15,-8.85,-9.4c0,-5.25,3.45,-9.45,8.85,-9.45c5.45,0,8.9,4.2,8.9,9.45m10.9,-6.55l0,18.25l3.4,0l0,-12c0,-6.25,3.25,-8.85,6.85,-8.85c0.9,0,2,0.15,2.4,0.3l0.45,-3.2c-0.7,-0.2,-1.4,-0.25,-2.25,-0.25c-3.3,0,-6.2,1.9,-7.5,4.6l-0.1,0c0,-1,-0.1,-2.75,-0.2,-4l-3.25,0c0.15,1.6,0.2,3.9,0.2,5.15m21.45,-5.15l-3.4,0l0,23.4l3.4,0l0,-23.4m0.7,-9c0,-1.4,-1.2,-2.4,-2.4,-2.4c-1.2,0,-2.4,1,-2.4,2.4c0,1.4,1.2,2.4,2.4,2.4c1.2,0,2.4,-1,2.4,-2.4m27.85,12.45c-2,-2.7,-5.55,-4.05,-8.7,-4.05c-7.55,0,-12.5,5.25,-12.5,12.3c0,7.05,4.95,12.3,12.5,12.3c4.05,0,6.9,-1.6,8.9,-4.05l-2.55,-1.9c-1.35,1.8,-3.4,3.05,-6.35,3.05c-5.45,0,-8.9,-4.1,-8.9,-9.4c0,-5.35,3.5,-9.45,8.95,-9.45c2.55,0,4.9,1.3,6,3.1l2.65,-1.9m20.25,5.6c-8.55,0,-16.5,0.65,-16.5,7.85c0,5.2,4.55,7.1,8.1,7.1c3.75,0,6.35,-1.3,8.5,-4.4l0.1,0c0,1.25,0.15,2.65,0.35,3.8l3.05,0c-0.25,-1.3,-0.4,-3.45,-0.4,-5.25l0,-10.25c0,-5.7,-4.05,-8.5,-9.1,-8.5c-4,0,-7.3,1.45,-9.2,3.35l1.9,2.25c1.65,-1.65,4.2,-2.75,6.95,-2.75c4.05,0,6.25,2,6.25,6.05l0,0.75m0,2.65l0,1.75c0,4.15,-2.7,7.75,-7.5,7.75c-2.65,0,-5.5,-1.1,-5.5,-4.45c0,-4.45,6.45,-5.05,12,-5.05l1,0m15.45,-26.1l-3.4,0l0,37.8l3.4,0l0,-37.8m40.85,33.85l0.1,0l0,3.95l3.4,0l0,-37.8l-3.4,0l0,18.45l-0.1,0c-2,-3.05,-5.5,-4.65,-8.85,-4.65c-7.3,0,-12.1,5.4,-12.1,12.3c0,6.9,4.8,12.3,12.1,12.3c3.35,0,6.85,-1.6,8.85,-4.55m-17.35,-7.75c0,-5.2,3.2,-9.45,8.85,-9.45c5.25,0,9,4.1,9,9.45c0,5.35,-3.75,9.4,-9,9.4c-5.65,0,-8.85,-4.2,-8.85,-9.4m44.7,-2.65c-8.55,0,-16.5,0.65,-16.5,7.85c0,5.2,4.55,7.1,8.1,7.1c3.75,0,6.35,-1.3,8.5,-4.4l0.1,0c0,1.25,0.15,2.65,0.35,3.8l3.05,0c-0.25,-1.3,-0.4,-3.45,-0.4,-5.25l0,-10.25c0,-5.7,-4.05,-8.5,-9.1,-8.5c-4,0,-7.3,1.45,-9.2,3.35l1.9,2.25c1.65,-1.65,4.2,-2.75,6.95,-2.75c4.05,0,6.25,2,6.25,6.05l0,0.75m0,2.65l0,1.75c0,4.15,-2.7,7.75,-7.5,7.75c-2.65,0,-5.5,-1.1,-5.5,-4.45c0,-4.45,6.45,-5.05,12,-5.05l1,0m22,-11.7l-6.6,0l0,-6.6l-3.4,0l0,6.6l-4.85,0l0,2.85l4.85,0l0,14.6c0,5.15,3.5,6.25,6,6.25c1.55,0,2.8,-0.25,4,-0.7l-0.15,-2.95c-0.9,0.45,-2,0.75,-2.95,0.75c-2.05,0,-3.5,-0.8,-3.5,-4.3l0,-13.65l6.6,0l0,-2.85m20.05,9.05c-8.55,0,-16.5,0.65,-16.5,7.85c0,5.2,4.55,7.1,8.1,7.1c3.75,0,6.35,-1.3,8.5,-4.4l0.1,0c0,1.25,0.15,2.65,0.35,3.8l3.05,0c-0.25,-1.3,-0.4,-3.45,-0.4,-5.25l0,-10.25c0,-5.7,-4.05,-8.5,-9.1,-8.5c-4,0,-7.3,1.45,-9.2,3.35l1.9,2.25c1.65,-1.65,4.2,-2.75,6.95,-2.75c4.05,0,6.25,2,6.25,6.05l0,0.75m0,2.65l0,1.75c0,4.15,-2.7,7.75,-7.5,7.75c-2.65,0,-5.5,-1.1,-5.5,-4.45c0,-4.45,6.45,-5.05,12,-5.05l1,0m39.5,-8.1c-1.5,-2.65,-4.95,-4.2,-8.2,-4.2c-4.25,0,-8.35,2.05,-8.35,6.8c0,4.45,3.95,5.65,6.7,6.3c4.45,1.05,6.9,2.05,6.9,4.5c0,3.05,-2.6,4.1,-5.5,4.1c-2.75,0,-5.3,-1.6,-6.5,-3.65l-2.7,2c2.15,3.15,5.7,4.55,9.25,4.55c4.3,0,8.8,-1.9,8.8,-7.25c0,-3.65,-2.6,-5.7,-8.1,-6.85c-3.85,-0.8,-5.6,-1.8,-5.6,-4c0,-2.6,2.5,-3.65,4.95,-3.65c2.6,0,4.75,1.35,5.75,3.3l2.6,-1.95m30.4,8.1c0,-7.05,-5.2,-12.3,-12.5,-12.3c-7.25,0,-12.45,5.25,-12.45,12.3c0,7.05,5.2,12.3,12.45,12.3c7.3,0,12.5,-5.25,12.5,-12.3m-3.6,0c0,5.25,-3.45,9.4,-8.9,9.4c-5.4,0,-8.85,-4.15,-8.85,-9.4c0,-5.25,3.45,-9.45,8.85,-9.45c5.45,0,8.9,4.2,8.9,9.45m31.15,11.7c-0.15,-1.6,-0.2,-3.9,-0.2,-5.15l0,-18.25l-3.4,0l0,12c0,6.25,-3.5,9.15,-7.1,9.15c-4.9,0,-6.35,-3.3,-6.35,-8.2l0,-12.95l-3.4,0l0,14.35c0,5.8,2.95,9.65,8.9,9.65c3.3,0,6.7,-1.9,8,-4.6l0.1,0c0,1,0.1,2.75,0.2,4l3.25,0m8.8,-18.25l0,18.25l3.4,0l0,-12c0,-6.25,3.25,-8.85,6.85,-8.85c0.9,0,2,0.15,2.4,0.3l0.45,-3.2c-0.7,-0.2,-1.4,-0.25,-2.25,-0.25c-3.3,0,-6.2,1.9,-7.5,4.6l-0.1,0c0,-1,-0.1,-2.75,-0.2,-4l-3.25,0c0.15,1.6,0.2,3.9,0.2,5.15m36.6,-1.7c-2,-2.7,-5.55,-4.05,-8.7,-4.05c-7.55,0,-12.5,5.25,-12.5,12.3c0,7.05,4.95,12.3,12.5,12.3c4.05,0,6.9,-1.6,8.9,-4.05l-2.55,-1.9c-1.35,1.8,-3.4,3.05,-6.35,3.05c-5.45,0,-8.9,-4.1,-8.9,-9.4c0,-5.35,3.5,-9.45,8.95,-9.45c2.55,0,4.9,1.3,6,3.1l2.65,-1.9m7.4,6.45c0.3,-4,3.65,-7.65,8.2,-7.65c4.85,0,7.55,3.25,7.75,7.65l-15.95,0m19.4,1.1c0,-6.4,-3.85,-11.6,-11.2,-11.6c-6.65,0,-11.8,5.25,-11.8,12.3c0,7.05,5.15,12.3,12.1,12.3c3.85,0,7.3,-1.45,10.05,-4.95l-2.55,-2c-1.3,2.1,-4,4.05,-7.5,4.05c-4.8,0,-8.45,-3.8,-8.55,-8.5l19.4,0c0.05,-0.6,0.05,-1.15,0.05,-1.6m13,-8.6c0,-1.4,-1.1,-2.7,-2.7,-2.7c-1.6,0,-2.7,1.3,-2.7,2.7c0,1.4,1.1,2.7,2.7,2.7c1.6,0,2.7,-1.3,2.7,-2.7m0,18.6c0,-1.4,-1.1,-2.7,-2.7,-2.7c-1.6,0,-2.7,1.3,-2.7,2.7c0,1.4,1.1,2.7,2.7,2.7c1.6,0,2.7,-1.3,2.7,-2.7m25.6,-33l-3.6,0l0,35.4l3.6,0l0,-35.4m13,18.55l17.15,0l0,-3.15l-17.15,0l0,-12.2l18.35,0l0,-3.2l-21.95,0l0,35.4l22.55,0l0,-3.2l-18.95,0l0,-13.65m29.6,7.55l18.3,0l3.9,9.3l4,0l-15.2,-35.4l-3.5,0l-15.3,35.4l3.95,0l3.85,-9.3m9.15,-22.1l7.8,18.8l-15.6,0l7.8,-18.8m33.05,-4l-3.8,0l10.45,35.4l4.2,0l8.9,-30.4l0.1,0l8.9,30.4l4.2,0l10.45,-35.4l-3.8,0l-8.65,30.45l-0.1,0l-8.85,-30.45l-4.3,0l-8.85,30.45l-0.1,0l-8.75,-30.45m52.4,18.55l17.15,0l0,-3.15l-17.15,0l0,-12.2l18.35,0l0,-3.2l-21.95,0l0,35.4l22.55,0l0,-3.2l-18.95,0l0,-13.65m26,16.85l10.5,0c8.15,0,13.2,-3.9,13.2,-9.8c0,-5.15,-3.4,-8.35,-8,-8.85l0,-0.1c3.75,-0.85,6.25,-3.9,6.25,-7.6c0,-7.1,-6,-9.05,-11.4,-9.05l-10.55,0l0,35.4m3.6,-32.3l6.25,0c4.65,0,8.5,1.7,8.5,6.2c0,4.7,-4.05,6.2,-7.5,6.2l-7.25,0l0,-12.4m0,15.35l7.35,0c5.75,0,9.1,2.3,9.1,6.95c0,4.95,-4.55,6.9,-9.75,6.9l-6.7,0l0,-13.85m40.9,2.55c0,7.75,2.8,15.35,6.6,20.7l-2.6,1.65c-4.2,-5.55,-7.3,-13.75,-7.3,-22.35c0,-8.6,3.1,-16.8,7.3,-22.35l2.6,1.65c-3.8,5.35,-6.6,12.95,-6.6,20.7m35.3,11.2l-18.75,0l12.75,-12.65c3.1,-3.1,5.75,-6.15,5.75,-10.7c0,-6.45,-4.95,-9.75,-10.65,-9.75c-5.55,0,-9.85,3.65,-10.85,8.65l3.55,0.7c0.75,-3.65,3.5,-6.3,7.3,-6.3c3.8,0,7,2.65,7,6.75c0,3.25,-2.1,5.9,-4.25,8.1l-14.5,14.65l0,3.75l22.65,0l0,-3.2m18.3,-33.1c-8.9,0,-11.6,9.45,-11.6,18.65c0,9.2,2.7,18.55,11.6,18.55c8.8,0,11.6,-9.35,11.6,-18.55c0,-9.2,-2.8,-18.65,-11.6,-18.65m0,3.05c6.2,0,7.95,8.55,7.95,15.6c0,7.05,-1.75,15.45,-7.95,15.45c-6.3,0,-7.95,-8.4,-7.95,-15.45c0,-7.05,1.65,-15.6,7.95,-15.6m32.4,-2.15l-3.2,0l-9,7.4l2.2,2.5l6.4,-5.45l0,30.95l3.6,0l0,-35.4m20.2,35.4l4.15,0l9.65,-15.55c1.75,-2.85,3.2,-5.95,3.2,-9.6c0,-6.6,-4.85,-11.15,-11.5,-11.15c-6.65,0,-11.5,4.55,-11.5,11.15c0,6.45,4.65,10.9,10.8,10.9c1.8,0,4,-0.5,5.05,-1.3l0.1,0.1l-9.95,15.45m13.4,-25.15c0,4.55,-3.05,8,-7.9,8c-4.85,0,-7.9,-3.45,-7.9,-8c0,-4.6,3.25,-8.1,7.9,-8.1c4.65,0,7.9,3.5,7.9,8.1m16.6,10.75c0,7.75,-2.8,15.35,-6.6,20.7l2.6,1.65c4.2,-5.55,7.3,-13.75,7.3,-22.35c0,-8.6,-3.1,-16.8,-7.3,-22.35l-2.6,1.65c3.8,5.35,6.6,12.95,6.6,20.7" fill="#121618" stroke="none" fill-opacity="1"/>
</g>
</g>
<g clip-path="url(#c1)">
<g fill="none" stroke="#999999" stroke-width="2.5">
<path d="M188.97,1790.55l2929.13,0M188.97,1536.37l2929.13,0M188.97,1282.2l2929.13,0M188.97,1028.03l2929.13,0M188.97,773.85l2929.13,0M188.97,519.68l2929.13,0"/>
</g>
</g>
<g clip-path="url(#c0)">
<g fill="none" stroke="#999999" stroke-linecap="butt" stroke-width="2.5">
<path d="M3118.11,1790.55l25,0M3118.11,1536.37l25,0M3118.11,1282.2l25,0M3118.11,1028.03l25,0M3118.11,773.85l25,0M3118.11,519.68l25,0"/>
</g>
</g>
<g clip-path="url(#c1)">
<g fill="none" stroke="#a7aaaa" stroke-dasharray="0.58,23.33" stroke-width="5.83">
<path d="M188.97,519.68l0,1270.86M607.42,519.68l0,1270.86M1025.87,519.68l0,1270.86M1444.31,519.68l0,1270.86M1862.76,519.68l0,1270.86M2281.21,519.68l0,1270.86M2699.66,519.68l0,1270.86M3118.11,519.68l0,1270.86"/>
</g>
</g>
<g clip-path="url(#c0)">
<g fill="none" stroke="none" stroke-width="0.1">
<path d="m0,0l3814.96,0l0,2035.27l-3814.96,0l0,-2035.27" id="p0"/>
</g>
</g>
<g clip-path="url(#c2)">
<g fill="none" stroke-width="5.52">
<path d="M3223.11,569.41l0,0"/>
</g>
<g fill="none" stroke-dasharray="16.66,33.33" stroke-width="8.33">
<path d="M3166.41,569.41l113.38,0"/>
</g>
</g>
<g fill="none" stroke="#121618" stroke-width="0.1">
<path d="m3373.84,545.76l-8.6,0l0,47.22l6.6,0l0,-38.55l0.13,0l24.94,38.55l8.33,0l0,-47.22l-6.6,0l0,37.75l-0.13,0l-24.67,-37.75m74.57,31.34c0,-9.73,-7.4,-16.6,-17.07,-16.6c-9.67,0,-17,6.87,-17,16.6c0,9.73,7.33,16.74,17,16.74c9.67,0,17.07,-7,17.07,-16.74m-6.53,0c0,6,-3.73,11.47,-10.53,11.47c-6.73,0,-10.53,-5.46,-10.53,-11.47c0,-6,3.8,-11.4,10.53,-11.4c6.8,0,10.53,5.4,10.53,11.4m67.43,4.93c-2.8,4.06,-7.4,6.26,-12.67,6.26c-10.87,0,-17.74,-8.4,-17.74,-19c0,-10.33,7,-18.94,17.94,-18.94c4.86,0,9.47,2.33,11.73,5.53l5.2,-4c-3.46,-4.8,-10.47,-7.33,-16.94,-7.33c-14.34,0,-25.14,10,-25.14,24.74c0,14.54,10.4,24.87,24.87,24.87c8.27,0,14.34,-3.53,18,-8.53l-5.26,-3.6m58.82,-12.73c0,-14.74,-10.67,-24.74,-25.07,-24.74c-14.34,0,-24.94,10,-24.94,24.74c0,14.54,10.6,24.87,24.94,24.87c14.4,0,25.07,-10.33,25.07,-24.87m-7.13,0c0,10.53,-7,18.94,-17.94,18.94c-10.8,0,-17.8,-8.4,-17.8,-18.94c0,-10.33,6.93,-18.94,17.8,-18.94c11,0,17.94,8.6,17.94,18.94m16.8,-23.54l-7.33,0l18.4,47.22l6.13,0l18.54,-47.22l-7.13,0l-14.2,38.68l-0.2,0l-14.2,-38.68m47.95,0l-6.6,0l0,47.22l6.6,0l0,-47.22m11.47,47.22l16.2,0c12.07,0,25.47,-7.47,25.47,-23.61c0,-16.74,-13.4,-23.61,-25.47,-23.61l-16.2,0l0,47.22m6.6,-41.48l8.27,0c11.4,0,19.74,6.2,19.74,17.87c0,11.27,-8.33,17.8,-19.74,17.8l-8.27,0l0,-35.68m56.82,22.54l-15.47,0l0,5.33l15.47,0l0,-5.33m28.21,-28.28l-5.8,0l-13.4,10.87l3.8,4.46l8.93,-7.47l0,39.35l6.46,0l0,-47.22m26.07,47.22l7.67,0l12.33,-19.47c2.66,-4.33,4.53,-8.27,4.53,-13.4c0,-8.93,-6.93,-15.54,-16.27,-15.54c-9.27,0,-16.34,6.33,-16.34,15.74c0,8.6,6.46,14.8,14.74,14.8c1,0,2.13,-0.13,3.2,-0.33c1.06,-0.2,2.06,-0.53,2.73,-0.93l0.06,0.06l-12.67,19.07m18.07,-32.94c0,5.8,-3.93,9.93,-9.87,9.93c-5.86,0,-9.73,-4.2,-9.73,-9.87c0,-5.86,4,-10.13,9.8,-10.13c5.86,0,9.8,4.53,9.8,10.07" fill="#121618" stroke="none" fill-opacity="1"/>
</g>
<g fill="#003591" stroke="none" stroke-width="0.1">
<path d="m3166.41,617.23l110.48,0l0,55.79l-110.48,0l0,-55.79"/>
</g>
<g fill="none" stroke="#121618" stroke-width="0.1">
<path d="m3365.24,672.69l15.54,0c9.87,0,17.74,-4.33,17.74,-13.4c0,-6.6,-4.4,-10.73,-10.47,-11.47l0,-0.13c4.93,-1.33,8.27,-5.06,8.27,-10.27c0,-9,-7.67,-11.93,-14.8,-11.93l-16.27,0l0,47.22m6.6,-41.68l7.53,0c6.26,0,10.33,2,10.33,7.07c0,5.13,-4.2,7.33,-9.27,7.33l-8.6,0l0,-14.4m0,20.01l8.87,0c7.2,0,11.13,2.4,11.13,7.93c0,6.4,-6.13,8.13,-11.73,8.13l-8.27,0l0,-16.07m55.56,2.06c-10.67,0,-22.01,1.13,-22.01,10.67c0,7.27,6.46,9.73,11.47,9.73c4.73,0,8.33,-1.93,10.6,-5.33l0.2,0c0,1.46,0.2,3.13,0.53,4.53l5.66,0c-0.33,-1.53,-0.46,-4.13,-0.46,-6.26l0,-13.8c0,-7,-4.13,-12.4,-13.2,-12.4c-5.13,0,-9.87,1.8,-12.93,4.73l3.33,4c2.13,-2.13,5.46,-3.66,9,-3.66c4.66,0,7.8,2.26,7.8,6.93l0,0.86m0,4.53l0,1.66c0,5.33,-3.26,9.27,-9.13,9.27c-3.13,0,-6.46,-1.2,-6.46,-4.93c0,-5.33,7.87,-6,14.07,-6l1.53,0m37.88,-12.2c-2.26,-3.4,-7,-5.2,-11.47,-5.2c-6,0,-11.93,2.86,-11.93,9.67c0,5.93,5,7.73,9.2,8.73c5.4,1.26,8.27,2.33,8.27,5.26c0,3.46,-3.13,4.6,-6.26,4.6c-3.53,0,-6.73,-1.93,-8.4,-4.4l-4.46,3.8c3,3.8,7.93,5.66,12.73,5.66c6.4,0,12.6,-2.73,12.6,-10.2c0,-5.53,-4.6,-8,-10.6,-9.33c-4.8,-1.06,-7.2,-2.06,-7.2,-4.73c0,-3,3,-4.13,5.86,-4.13c3.2,0,5.93,1.66,7.33,3.93l4.33,-3.66m12.53,8.67c0.4,-4.93,4.53,-8.93,9.93,-8.93c5.8,0,8.73,3.93,8.87,8.93l-18.8,0m25.14,2.53c0,-10.07,-5.86,-16.4,-15.2,-16.4c-9.27,0,-16.34,6.87,-16.34,16.74c0,9.93,7.06,16.6,16.67,16.6c5.6,0,10.2,-2.06,13.6,-6.46l-4.4,-3.53c-1.8,2.66,-4.93,4.8,-9.2,4.8c-5.53,0,-10.07,-4.2,-10.27,-9.6l25.07,0c0.06,-0.73,0.06,-1.46,0.06,-2.13" fill="#121618" stroke="none" fill-opacity="1"/>
</g>
<g fill="none" stroke="none" stroke-width="0.1">
<path d="m3166.41,696.94l110.48,0l0,55.79l-110.48,0l0,-55.79"/>
</g>
<g fill="none" stroke="#121618" stroke-width="0.1">
<path d="m0,0" fill="#121618" stroke="none" fill-opacity="1"/>
</g>
<g fill="none" stroke="none" stroke-width="0.1">
<path d="m3166.41,776.64l110.48,0l0,55.79l-110.48,0l0,-55.79"/>
</g>
<g fill="none" stroke="#121618" stroke-width="0.1">
<path d="m0,0" fill="#121618" stroke="none" fill-opacity="1"/>
</g>
<g fill="none" stroke="none" stroke-width="0.1">
<path d="m3166.41,856.35l110.48,0l0,55.79l-110.48,0l0,-55.79"/>
</g>
<g fill="none" stroke="#121618" stroke-width="0.1">
<path d="m0,0" fill="#121618" stroke="none" fill-opacity="1"/>
</g>
<g clip-path="url(#c0)">
<g fill="none" stroke="none" stroke-width="0.1">
<use xlink:href="#p0"/>
</g>
<g fill="none" stroke="#121618" stroke-width="0.1">
<path d="m224.93,394.13l22.27,0l0,-5.66l-22.27,0l0,-14.14l23.67,0l0,-5.8l-30.28,0l0,47.22l31.28,0l0,-5.86l-24.67,0l0,-15.74m28.74,12.8c1.4,5.86,6.06,10,13.27,10c11.07,0,13.4,-9.13,13.4,-15.67l0,-32.74l-6.6,0l0,32.48c0,5.53,-1.46,10.07,-7.13,10.07c-3.53,0,-6.06,-2.46,-6.8,-5.86l-6.13,1.73m57.09,-38.95l-4.73,-1.73l-20.47,50.09l4.73,1.6l20.47,-49.95m7.86,16.14l-7,0l13.54,31.61l-2,5.26c-1.33,3.4,-2.6,5.26,-5.86,5.26c-1,0,-2.13,-0.2,-3.13,-0.53l-0.6,5.53c1.4,0.33,2.8,0.46,4.13,0.46c6.2,0,8.87,-3.26,10.93,-8.53l15.34,-39.08l-6.67,0l-8.73,24.81l-0.13,0l-9.8,-24.81m31.41,6.8l0,24.81l6.26,0l0,-16.6c0,-5.26,2.86,-10.13,8.87,-10.13c1,0,2.06,0.13,2.86,0.33l0.26,-5.8c-0.73,-0.2,-1.6,-0.26,-2.46,-0.26c-4.26,0,-7.93,2.53,-9.67,6.2l-0.2,0c0,-1.33,-0.13,-3.73,-0.26,-5.33l-5.93,0c0.2,2.06,0.26,5.13,0.26,6.8" fill="#121618" stroke="none" fill-opacity="1"/>
<path d="m47.3,416.94c14.14,0,17.67,-10.93,17.67,-18.8l0,-29.61l-4.8,0l0,29.08c0,7.6,-3.26,15.07,-12.87,15.07c-9.6,0,-12.87,-7.47,-12.87,-15.07l0,-29.08l-4.8,0l0,29.61c0,7.87,3.53,18.8,17.67,18.8m29.41,-32.41c0.2,2.13,0.26,5.2,0.26,6.87l0,24.34l4.53,0l0,-16c0,-8.33,4.66,-12.2,9.47,-12.2c6.53,0,8.47,4.4,8.47,10.93l0,17.27l4.53,0l0,-19.14c0,-7.73,-3.93,-12.87,-11.87,-12.87c-4.4,0,-8.93,2.53,-10.67,6.13l-0.13,0c0,-1.33,-0.13,-3.66,-0.26,-5.33l-4.33,0m43.62,0l-4.53,0l0,31.21l4.53,0l0,-31.21m0.93,-12c0,-1.86,-1.6,-3.2,-3.2,-3.2c-1.6,0,-3.2,1.33,-3.2,3.2c0,1.86,1.6,3.2,3.2,3.2c1.6,0,3.2,-1.33,3.2,-3.2m25.21,12l-8.8,0l0,-8.8l-4.53,0l0,8.8l-6.46,0l0,3.8l6.46,0l0,19.47c0,6.87,4.66,8.33,8,8.33c2.06,0,3.73,-0.33,5.33,-0.93l-0.2,-3.93c-1.2,0.6,-2.66,1,-3.93,1c-2.73,0,-4.66,-1.06,-4.66,-5.73l0,-18.2l8.8,0l0,-3.8m27.14,4.8c-2,-3.53,-6.6,-5.6,-10.93,-5.6c-5.66,0,-11.13,2.73,-11.13,9.07c0,5.93,5.26,7.53,8.93,8.4c5.93,1.4,9.2,2.73,9.2,6c0,4.06,-3.46,5.46,-7.33,5.46c-3.66,0,-7.07,-2.13,-8.67,-4.86l-3.6,2.66c2.86,4.2,7.6,6.06,12.33,6.06c5.73,0,11.73,-2.53,11.73,-9.67c0,-4.86,-3.46,-7.6,-10.8,-9.13c-5.13,-1.06,-7.47,-2.4,-7.47,-5.33c0,-3.46,3.33,-4.86,6.6,-4.86c3.46,0,6.33,1.8,7.67,4.4l3.46,-2.6m17.14,-1.6c0,-1.86,-1.46,-3.6,-3.6,-3.6c-2.13,0,-3.6,1.73,-3.6,3.6c0,1.86,1.46,3.6,3.6,3.6c2.13,0,3.6,-1.73,3.6,-3.6m0,24.81c0,-1.86,-1.46,-3.6,-3.6,-3.6c-2.13,0,-3.6,1.73,-3.6,3.6c0,1.86,1.46,3.6,3.6,3.6c2.13,0,3.6,-1.73,3.6,-3.6" fill="#121618" stroke="none" fill-opacity="1"/>
<path d="m100.49,197.29c0,0,-15.15,53.1,-15.15,53.1c0,0,-12.67,0,-12.67,0c0,0,-10.5,-35.92,-10.5,-35.92c0,0,-0.22,0,-0.22,0c0,0,-10.5,35.92,-10.5,35.92c0,0,-12.75,0,-12.75,0c0,0,-15.07,-53.1,-15.07,-53.1c0,0,13.8,0,13.8,0c0,0,8.4,35.32,8.4,35.32c0,0,0.22,0,0.22,0c0,0,9.45,-35.32,9.45,-35.32c0,0,13.35,0,13.35,0c0,0,9.52,35.32,9.52,35.32c0,0,0.22,0,0.22,0c0,0,8.55,-35.32,8.55,-35.32c0,0,13.35,0,13.35,0m44.39,34.27c0,12.22,-9.45,20.02,-20.77,20.02c-11.25,0,-20.7,-7.8,-20.7,-20.02c0,-12.22,9.45,-19.72,20.7,-19.72c11.32,0,20.77,7.5,20.77,19.72m-11.85,0c0,-4.8,-3.15,-9.52,-8.92,-9.52c-5.77,0,-8.77,4.72,-8.77,9.52c0,4.8,3.07,9.67,8.85,9.67c5.77,0,8.85,-4.87,8.85,-9.67m44.4,-19.27c0,0,-0.52,10.8,-0.52,10.8c-1.12,-0.3,-2.17,-0.37,-3.15,-0.37c-6.6,0,-8.77,5.4,-8.77,8.47c0,0,0,19.2,0,19.2c0,0,-12.3,0,-12.3,0c0,0,0,-37.35,0,-37.35c0,0,11.85,0,11.85,0c0,0,0,5.4,0,5.4c0,0,0.15,0,0.15,0c1.87,-3.75,5.55,-6.45,10.12,-6.45c0.97,0,2.02,0.07,2.62,0.3m17.55,38.1c0,0,-12.45,0,-12.45,0c0,0,0,-56.7,0,-56.7c0,0,12.45,0,12.45,0c0,0,0,56.7,0,56.7m49.35,0c0,0,-11.32,0,-11.32,0c0,0,0,-4.87,0,-4.87c0,0,-0.15,0,-0.15,0c-2.4,3.75,-7.27,5.92,-12.22,5.92c-11.25,0,-17.77,-9.45,-17.77,-19.87c0,-10.42,6.75,-19.57,17.62,-19.57c5.47,0,9.3,2.55,11.4,5.02c0,0,0.15,0,0.15,0c0,0,0,-23.32,0,-23.32c0,0,12.3,0,12.3,0c0,0,0,56.7,0,56.7m-11.77,-18.75c0,-4.72,-3.45,-9.6,-9,-9.6c-5.85,0,-8.85,4.72,-8.85,9.52c0,4.87,3,9.67,8.85,9.67c5.55,0,9,-4.72,9,-9.6m64.27,-38.62c0,0,-0.82,9.75,-0.82,9.75c-0.9,-0.3,-2.17,-0.52,-3.37,-0.52c-4.5,0,-5.47,3.6,-5.47,7.05c0,0,0,3.75,0,3.75c0,0,8.32,0,8.32,0c0,0,0,9.22,0,9.22c0,0,-8.32,0,-8.32,0c0,0,0,28.12,0,28.12c0,0,-12.3,0,-12.3,0c0,0,0,-28.12,0,-28.12c0,0,-6.82,0,-6.82,0c0,0,0,-9.22,0,-9.22c0,0,6.82,0,6.82,0c0,0,0,-3.6,0,-3.6c0,-9.15,3.6,-17.17,16.05,-17.17c2.1,0,4.27,0.22,5.92,0.75m16.65,8.1c0,3.82,-3.15,6.75,-7.05,6.75c-3.97,0,-7.05,-3.07,-7.05,-6.75c0,-3.6,3.07,-6.75,7.05,-6.75c3.9,0,7.05,3,7.05,6.75m-0.9,49.27c0,0,-12.3,0,-12.3,0c0,0,0,-37.35,0,-37.35c0,0,12.3,0,12.3,0c0,0,0,37.35,0,37.35m46.65,0c0,0,-12.37,0,-12.37,0c0,0,0,-20.4,0,-20.4c0,-4.12,-1.12,-7.87,-5.55,-7.87c-4.35,0,-6.6,3.75,-6.6,8.02c0,0,0,20.25,0,20.25c0,0,-12.37,0,-12.37,0c0,0,0,-37.35,0,-37.35c0,0,11.92,0,11.92,0c0,0,0,5.17,0,5.17c0,0,0.15,0,0.15,0c1.72,-3.3,6,-6.22,11.17,-6.22c10.05,0,13.65,7.8,13.65,15.3c0,0,0,23.1,0,23.1m31.35,-15c0,0,0,-1.27,0,-1.27c0,0,-1.57,0,-1.57,0c-5.4,0,-11.47,0.67,-11.47,5.1c0,2.85,2.85,3.82,5.32,3.82c4.95,0,7.72,-3,7.72,-7.65m-16.35,-10.57c0,0,-6.22,-6.67,-6.22,-6.67c4.35,-4.12,10.57,-6.3,16.65,-6.3c12.52,0,17.17,6.15,17.17,19.72c0,0,0,18.82,0,18.82c0,0,-11.25,0,-11.25,0c0,0,0,-3.97,0,-3.97c0,0,-0.22,0,-0.22,0c-1.87,3.07,-6.15,4.87,-10.57,4.87c-5.92,0,-13.57,-2.92,-13.57,-11.7c0,-10.8,13.12,-12.6,24,-12.6c0,0,0,-0.6,0,-0.6c0,-3.67,-2.92,-5.4,-6.75,-5.4c-3.52,0,-6.97,1.72,-9.22,3.82m49.34,25.57c0,0,-12.45,0,-12.45,0c0,0,0,-56.7,0,-56.7c0,0,12.45,0,12.45,0c0,0,0,56.7,0,56.7m38.4,-22.95c0,0,15.82,0,15.82,0c0,-3.9,-2.47,-7.12,-7.35,-7.12c-4.72,0,-8.17,3.3,-8.47,7.12m27.15,4.72c0,0.97,0,2.02,-0.07,2.92c0,0,-27.07,0,-27.07,0c0.37,4.12,4.5,7.05,8.92,7.05c3.9,0,6.6,-1.65,8.25,-3.9c0,0,8.55,5.4,8.55,5.4c-3.52,5.1,-9.37,7.95,-16.95,7.95c-11.25,0,-20.55,-7.12,-20.55,-19.72c0,-12.22,8.85,-20.02,20.17,-20.02c11.02,0,18.75,7.57,18.75,20.32m44.55,18.22c0,0,-12.37,0,-12.37,0c0,0,0,-20.4,0,-20.4c0,-4.12,-1.12,-7.87,-5.55,-7.87c-4.35,0,-6.6,3.75,-6.6,8.02c0,0,0,20.25,0,20.25c0,0,-12.37,0,-12.37,0c0,0,0,-37.35,0,-37.35c0,0,11.92,0,11.92,0c0,0,0,5.17,0,5.17c0,0,0.15,0,0.15,0c1.72,-3.3,6,-6.22,11.17,-6.22c10.05,0,13.65,7.8,13.65,15.3c0,0,0,23.1,0,23.1m19.2,-22.95c0,0,15.82,0,15.82,0c0,-3.9,-2.47,-7.12,-7.35,-7.12c-4.72,0,-8.17,3.3,-8.47,7.12m27.15,4.72c0,0.97,0,2.02,-0.07,2.92c0,0,-27.07,0,-27.07,0c0.37,4.12,4.5,7.05,8.92,7.05c3.9,0,6.6,-1.65,8.25,-3.9c0,0,8.55,5.4,8.55,5.4c-3.52,5.1,-9.37,7.95,-16.95,7.95c-11.25,0,-20.55,-7.12,-20.55,-19.72c0,-12.22,8.85,-20.02,20.17,-20.02c11.02,0,18.75,7.57,18.75,20.32m32.4,-19.87c0,0,-0.52,10.8,-0.52,10.8c-1.12,-0.3,-2.17,-0.37,-3.15,-0.37c-6.6,0,-8.77,5.4,-8.77,8.47c0,0,0,19.2,0,19.2c0,0,-12.3,0,-12.3,0c0,0,0,-37.35,0,-37.35c0,0,11.85,0,11.85,0c0,0,0,5.4,0,5.4c0,0,0.15,0,0.15,0c1.87,-3.75,5.55,-6.45,10.12,-6.45c0.97,0,2.02,0.07,2.62,0.3m44.55,34.57c0,14.62,-8.7,21.52,-21.97,21.52c-6.52,0,-14.17,-2.1,-19.2,-5.85c0,0,6.15,-8.77,6.15,-8.77c3.6,3.15,8.17,4.72,12.37,4.72c7.2,0,10.57,-4.2,10.57,-10.42c0,0,0,-2.25,0,-2.25c0,0,-0.22,0,-0.22,0c-2.32,3,-6.37,4.95,-11.32,4.95c-11.32,0,-17.85,-8.85,-17.85,-19.2c0,-10.35,6.52,-19.57,17.77,-19.57c4.65,0,9.3,1.87,11.92,5.85c0,0,0.15,0,0.15,0c0,0,0,-4.8,0,-4.8c0,0,11.62,0,11.62,0c0,0,0,33.82,0,33.82m-11.7,-15.37c0,-5.1,-3.52,-9.45,-9.07,-9.45c-5.55,0,-8.77,4.27,-8.77,9.45c0,4.95,3.22,9.52,8.77,9.52c5.62,0,9.07,-4.42,9.07,-9.52m59.25,-18.45c0,0,-16.72,42.97,-16.72,42.97c-3,7.8,-7.05,12.37,-16.42,12.37c-2.32,0,-4.95,-0.37,-6.75,-0.82c0,0,1.35,-10.35,1.35,-10.35c1.2,0.37,2.77,0.67,3.97,0.67c3.82,0,5.1,-1.8,6.3,-5.02c0,0,1.2,-3.07,1.2,-3.07c0,0,-15.6,-36.75,-15.6,-36.75c0,0,13.65,0,13.65,0c0,0,8.32,24,8.32,24c0,0,0.22,0,0.22,0c0,0,7.42,-24,7.42,-24c0,0,13.05,0,13.05,0m63.07,37.35c0,0,-11.32,0,-11.32,0c0,0,0,-4.87,0,-4.87c0,0,-0.15,0,-0.15,0c-2.4,3.75,-7.27,5.92,-12.22,5.92c-11.25,0,-17.77,-9.45,-17.77,-19.87c0,-10.42,6.75,-19.57,17.62,-19.57c5.47,0,9.3,2.55,11.4,5.02c0,0,0.15,0,0.15,0c0,0,0,-23.32,0,-23.32c0,0,12.3,0,12.3,0c0,0,0,56.7,0,56.7m-11.77,-18.75c0,-4.72,-3.45,-9.6,-9,-9.6c-5.85,0,-8.85,4.72,-8.85,9.52c0,4.87,3,9.67,8.85,9.67c5.55,0,9,-4.72,9,-9.6m31.42,-4.2c0,0,15.82,0,15.82,0c0,-3.9,-2.47,-7.12,-7.35,-7.12c-4.72,0,-8.17,3.3,-8.47,7.12m27.15,4.72c0,0.97,0,2.02,-0.07,2.92c0,0,-27.07,0,-27.07,0c0.37,4.12,4.5,7.05,8.92,7.05c3.9,0,6.6,-1.65,8.25,-3.9c0,0,8.55,5.4,8.55,5.4c-3.52,5.1,-9.37,7.95,-16.95,7.95c-11.25,0,-20.55,-7.12,-20.55,-19.72c0,-12.22,8.85,-20.02,20.17,-20.02c11.02,0,18.75,7.57,18.75,20.32m67.65,18.22c0,0,-12.3,0,-12.3,0c0,0,0,-20.4,0,-20.4c0,-4.27,-0.97,-7.87,-5.32,-7.87c-4.2,0,-6.22,3.9,-6.22,8.1c0,0,0,20.17,0,20.17c0,0,-12.3,0,-12.3,0c0,0,0,-21.3,0,-21.3c0,-4.27,-1.65,-6.97,-5.32,-6.97c-3.9,0,-6.15,3.52,-6.15,8.02c0,0,0,20.25,0,20.25c0,0,-12.37,0,-12.37,0c0,0,0,-37.35,0,-37.35c0,0,11.92,0,11.92,0c0,0,0,5.17,0,5.17c0,0,0.15,0,0.15,0c1.72,-3.15,5.55,-6.22,11.17,-6.22c5.4,0,9.15,2.32,11.25,6.37c2.47,-3.9,6.37,-6.37,11.92,-6.37c10.12,0,13.57,8.25,13.57,15.3c0,0,0,23.1,0,23.1m31.35,-15c0,0,0,-1.27,0,-1.27c0,0,-1.57,0,-1.57,0c-5.4,0,-11.47,0.67,-11.47,5.1c0,2.85,2.85,3.82,5.32,3.82c4.95,0,7.72,-3,7.72,-7.65m-16.35,-10.57c0,0,-6.22,-6.67,-6.22,-6.67c4.35,-4.12,10.57,-6.3,16.65,-6.3c12.52,0,17.17,6.15,17.17,19.72c0,0,0,18.82,0,18.82c0,0,-11.25,0,-11.25,0c0,0,0,-3.97,0,-3.97c0,0,-0.22,0,-0.22,0c-1.87,3.07,-6.15,4.87,-10.57,4.87c-5.92,0,-13.57,-2.92,-13.57,-11.7c0,-10.8,13.12,-12.6,24,-12.6c0,0,0,-0.6,0,-0.6c0,-3.67,-2.92,-5.4,-6.75,-5.4c-3.52,0,-6.97,1.72,-9.22,3.82m73.64,25.57c0,0,-12.37,0,-12.37,0c0,0,0,-20.4,0,-20.4c0,-4.12,-1.12,-7.87,-5.55,-7.87c-4.35,0,-6.6,3.75,-6.6,8.02c0,0,0,20.25,0,20.25c0,0,-12.37,0,-12.37,0c0,0,0,-37.35,0,-37.35c0,0,11.92,0,11.92,0c0,0,0,5.17,0,5.17c0,0,0.15,0,0.15,0c1.72,-3.3,6,-6.22,11.17,-6.22c10.05,0,13.65,7.8,13.65,15.3c0,0,0,23.1,0,23.1m48.9,0c0,0,-11.32,0,-11.32,0c0,0,0,-4.87,0,-4.87c0,0,-0.15,0,-0.15,0c-2.4,3.75,-7.27,5.92,-12.22,5.92c-11.25,0,-17.77,-9.45,-17.77,-19.87c0,-10.42,6.75,-19.57,17.62,-19.57c5.47,0,9.3,2.55,11.4,5.02c0,0,0.15,0,0.15,0c0,0,0,-23.32,0,-23.32c0,0,12.3,0,12.3,0c0,0,0,56.7,0,56.7m-11.77,-18.75c0,-4.72,-3.45,-9.6,-9,-9.6c-5.85,0,-8.85,4.72,-8.85,9.52c0,4.87,3,9.67,8.85,9.67c5.55,0,9,-4.72,9,-9.6m57.22,3.97c0,0,-19.05,0,-19.05,0c0,0,0,-9.75,0,-9.75c0,0,19.05,0,19.05,0c0,0,0,9.75,0,9.75m86.77,-22.57c0,0,-12.97,37.35,-12.97,37.35c0,0,-12.37,0,-12.37,0c0,0,-7.35,-23.25,-7.35,-23.25c0,0,-0.15,0,-0.15,0c0,0,-7.2,23.25,-7.2,23.25c0,0,-12.37,0,-12.37,0c0,0,-12.9,-37.35,-12.9,-37.35c0,0,13.27,0,13.27,0c0,0,6.45,23.62,6.45,23.62c0,0,0.22,0,0.22,0c0,0,6.67,-23.62,6.67,-23.62c0,0,12.37,0,12.37,0c0,0,6.9,23.62,6.9,23.62c0,0,0.15,0,0.15,0c0,0,6.52,-23.62,6.52,-23.62c0,0,12.75,0,12.75,0m18.15,-11.92c0,3.82,-3.15,6.75,-7.05,6.75c-3.97,0,-7.05,-3.07,-7.05,-6.75c0,-3.6,3.07,-6.75,7.05,-6.75c3.9,0,7.05,3,7.05,6.75m-0.9,49.27c0,0,-12.3,0,-12.3,0c0,0,0,-37.35,0,-37.35c0,0,12.3,0,12.3,0c0,0,0,37.35,0,37.35m31.87,-28.12c0,0,-8.77,0,-8.77,0c0,0,0,14.25,0,14.25c0,3.45,1.12,5.25,4.65,5.25c1.2,0,2.7,-0.22,3.6,-0.6c0,0,0.15,9,0.15,9c-1.65,0.6,-4.5,1.12,-7.12,1.12c-9.97,0,-13.27,-5.32,-13.27,-13.27c0,0,0,-15.75,0,-15.75c0,0,-6,0,-6,0c0,0,0,-9.22,0,-9.22c0,0,5.92,0,5.92,0c0,0,0,-9.82,0,-9.82c0,0,12.07,0,12.07,0c0,0,0,9.82,0,9.82c0,0,8.77,0,8.77,0c0,0,0,9.22,0,9.22m42.75,28.12c0,0,-12.37,0,-12.37,0c0,0,0,-20.25,0,-20.25c0,-4.2,-1.05,-7.87,-5.47,-7.87c-4.27,0,-6.67,3.52,-6.67,7.95c0,0,0,20.17,0,20.17c0,0,-12.3,0,-12.3,0c0,0,0,-56.7,0,-56.7c0,0,12.3,0,12.3,0c0,0,0,24.07,0,24.07c0,0,0.15,0,0.15,0c1.65,-3,5.55,-5.77,10.72,-5.77c10.12,0,13.65,7.8,13.65,15.3c0,0,0,23.1,0,23.1m50.1,-15c0,0,0,-1.27,0,-1.27c0,0,-1.57,0,-1.57,0c-5.4,0,-11.47,0.67,-11.47,5.1c0,2.85,2.85,3.82,5.32,3.82c4.95,0,7.72,-3,7.72,-7.65m-16.35,-10.57c0,0,-6.22,-6.67,-6.22,-6.67c4.35,-4.12,10.57,-6.3,16.65,-6.3c12.52,0,17.17,6.15,17.17,19.72c0,0,0,18.82,0,18.82c0,0,-11.25,0,-11.25,0c0,0,0,-3.97,0,-3.97c0,0,-0.22,0,-0.22,0c-1.87,3.07,-6.15,4.87,-10.57,4.87c-5.92,0,-13.57,-2.92,-13.57,-11.7c0,-10.8,13.12,-12.6,24,-12.6c0,0,0,-0.6,0,-0.6c0,-3.67,-2.92,-5.4,-6.75,-5.4c-3.52,0,-6.97,1.72,-9.22,3.82m73.64,25.57c0,0,-12.37,0,-12.37,0c0,0,0,-20.4,0,-20.4c0,-4.12,-1.12,-7.87,-5.55,-7.87c-4.35,0,-6.6,3.75,-6.6,8.02c0,0,0,20.25,0,20.25c0,0,-12.37,0,-12.37,0c0,0,0,-37.35,0,-37.35c0,0,11.92,0,11.92,0c0,0,0,5.17,0,5.17c0,0,0.15,0,0.15,0c1.72,-3.3,6,-6.22,11.17,-6.22c10.05,0,13.65,7.8,13.65,15.3c0,0,0,23.1,0,23.1m48.9,0c0,0,-11.32,0,-11.32,0c0,0,0,-4.87,0,-4.87c0,0,-0.15,0,-0.15,0c-2.4,3.75,-7.27,5.92,-12.22,5.92c-11.25,0,-17.77,-9.45,-17.77,-19.87c0,-10.42,6.75,-19.57,17.62,-19.57c5.47,0,9.3,2.55,11.4,5.02c0,0,0.15,0,0.15,0c0,0,0,-23.32,0,-23.32c0,0,12.3,0,12.3,0c0,0,0,56.7,0,56.7m-11.77,-18.75c0,-4.72,-3.45,-9.6,-9,-9.6c-5.85,0,-8.85,4.72,-8.85,9.52c0,4.87,3,9.67,8.85,9.67c5.55,0,9,-4.72,9,-9.6m100.8,-18.6c0,0,-12.97,37.35,-12.97,37.35c0,0,-12.37,0,-12.37,0c0,0,-7.35,-23.25,-7.35,-23.25c0,0,-0.15,0,-0.15,0c0,0,-7.2,23.25,-7.2,23.25c0,0,-12.37,0,-12.37,0c0,0,-12.9,-37.35,-12.9,-37.35c0,0,13.27,0,13.27,0c0,0,6.45,23.62,6.45,23.62c0,0,0.22,0,0.22,0c0,0,6.67,-23.62,6.67,-23.62c0,0,12.37,0,12.37,0c0,0,6.9,23.62,6.9,23.62c0,0,0.15,0,0.15,0c0,0,6.52,-23.62,6.52,-23.62c0,0,12.75,0,12.75,0m18.15,-11.92c0,3.82,-3.15,6.75,-7.05,6.75c-3.97,0,-7.05,-3.07,-7.05,-6.75c0,-3.6,3.07,-6.75,7.05,-6.75c3.9,0,7.05,3,7.05,6.75m-0.9,49.27c0,0,-12.3,0,-12.3,0c0,0,0,-37.35,0,-37.35c0,0,12.3,0,12.3,0c0,0,0,37.35,0,37.35m31.87,-28.12c0,0,-8.77,0,-8.77,0c0,0,0,14.25,0,14.25c0,3.45,1.12,5.25,4.65,5.25c1.2,0,2.7,-0.22,3.6,-0.6c0,0,0.15,9,0.15,9c-1.65,0.6,-4.5,1.12,-7.12,1.12c-9.97,0,-13.27,-5.32,-13.27,-13.27c0,0,0,-15.75,0,-15.75c0,0,-6,0,-6,0c0,0,0,-9.22,0,-9.22c0,0,5.92,0,5.92,0c0,0,0,-9.82,0,-9.82c0,0,12.07,0,12.07,0c0,0,0,9.82,0,9.82c0,0,8.77,0,8.77,0c0,0,0,9.22,0,9.22m42.75,28.12c0,0,-12.37,0,-12.37,0c0,0,0,-20.25,0,-20.25c0,-4.2,-1.05,-7.87,-5.47,-7.87c-4.27,0,-6.67,3.52,-6.67,7.95c0,0,0,20.17,0,20.17c0,0,-12.3,0,-12.3,0c0,0,0,-56.7,0,-56.7c0,0,12.3,0,12.3,0c0,0,0,24.07,0,24.07c0,0,0.15,0,0.15,0c1.65,-3,5.55,-5.77,10.72,-5.77c10.12,0,13.65,7.8,13.65,15.3c0,0,0,23.1,0,23.1m48.9,-18.82c0,12.22,-9.45,20.02,-20.77,20.02c-11.25,0,-20.7,-7.8,-20.7,-20.02c0,-12.22,9.45,-19.72,20.7,-19.72c11.32,0,20.77,7.5,20.77,19.72m-11.85,0c0,-4.8,-3.15,-9.52,-8.92,-9.52c-5.77,0,-8.77,4.72,-8.77,9.52c0,4.8,3.07,9.67,8.85,9.67c5.77,0,8.85,-4.87,8.85,-9.67m56.1,18.82c0,0,-11.85,0,-11.85,0c0,0,0,-5.17,0,-5.17c0,0,-0.15,0,-0.15,0c-1.72,3.3,-6,6.22,-11.25,6.22c-10.05,0,-13.57,-7.8,-13.57,-15.3c0,0,0,-23.1,0,-23.1c0,0,12.37,0,12.37,0c0,0,0,20.25,0,20.25c0,4.2,1.05,7.95,5.55,7.95c4.27,0,6.6,-3.75,6.6,-8.02c0,0,0,-20.17,0,-20.17c0,0,12.3,0,12.3,0c0,0,0,37.35,0,37.35m31.72,-28.12c0,0,-8.77,0,-8.77,0c0,0,0,14.25,0,14.25c0,3.45,1.12,5.25,4.65,5.25c1.2,0,2.7,-0.22,3.6,-0.6c0,0,0.15,9,0.15,9c-1.65,0.6,-4.5,1.12,-7.12,1.12c-9.97,0,-13.27,-5.32,-13.27,-13.27c0,0,0,-15.75,0,-15.75c0,0,-6,0,-6,0c0,0,0,-9.22,0,-9.22c0,0,5.92,0,5.92,0c0,0,0,-9.82,0,-9.82c0,0,12.07,0,12.07,0c0,0,0,9.82,0,9.82c0,0,8.77,0,8.77,0c0,0,0,9.22,0,9.22m71.92,20.77c-4.65,5.4,-11.7,8.77,-20.62,8.77c-16.35,0,-28.57,-11.4,-28.57,-28.05c0,-17.02,12.6,-27.9,28.8,-27.9c7.42,0,15.45,2.7,19.87,7.8c0,0,-8.7,8.7,-8.7,8.7c-2.4,-3.3,-6.67,-4.87,-10.72,-4.87c-8.92,0,-15.3,6.9,-15.3,16.27c0,9.67,6.22,16.27,15.07,16.27c5.02,0,9,-2.25,11.25,-5.4c0,0,8.92,8.4,8.92,8.4m60.82,-19.42c0,16.8,-12.3,28.2,-28.95,28.2c-16.57,0,-28.87,-11.4,-28.87,-28.2c0,-17.02,12.3,-27.75,28.87,-27.75c16.65,0,28.95,10.72,28.95,27.75m-13.72,0c0,-9.3,-6.22,-16.2,-15.22,-16.2c-9,0,-15.15,6.9,-15.15,16.2c0,9.6,6.22,16.5,15.15,16.5c8.92,0,15.22,-6.9,15.22,-16.5m69,-26.32c0,0,-20.47,53.1,-20.47,53.1c0,0,-12.82,0,-12.82,0c0,0,-20.1,-53.1,-20.1,-53.1c0,0,14.4,0,14.4,0c0,0,12.3,37.65,12.3,37.65c0,0,0.3,0,0.3,0c0,0,12.22,-37.65,12.22,-37.65c0,0,14.17,0,14.17,0m17.25,53.1c0,0,-12.9,0,-12.9,0c0,0,0,-53.1,0,-53.1c0,0,12.9,0,12.9,0c0,0,0,53.1,0,53.1m60.52,-26.7c0,18.67,-15.15,26.7,-29.77,26.7c0,0,-19.8,0,-19.8,0c0,0,0,-53.1,0,-53.1c0,0,19.2,0,19.2,0c15.07,0,30.37,6.3,30.37,26.4m-13.35,0c0,-11.92,-8.47,-15.45,-17.32,-15.45c0,0,-6.37,0,-6.37,0c0,0,0,31.05,0,31.05c0,0,6.07,0,6.07,0c9.15,0,17.62,-3.75,17.62,-15.6m38.1,11.92c0,0,-19.05,0,-19.05,0c0,0,0,-9.75,0,-9.75c0,0,19.05,0,19.05,0c0,0,0,9.75,0,9.75m36.52,14.77c0,0,-12.6,0,-12.6,0c0,0,0,-39,0,-39c0,0,-9.9,7.65,-9.9,7.65c0,0,-6.52,-8.92,-6.52,-8.92c0,0,17.47,-12.82,17.47,-12.82c0,0,11.55,0,11.55,0c0,0,0,53.1,0,53.1m59.77,-35.55c0,6.3,-2.4,11.17,-5.92,16.42c0,0,-12.82,19.12,-12.82,19.12c0,0,-15.22,0,-15.22,0c0,0,13.2,-18.3,13.2,-18.3c0,0,0.15,-0.22,0.15,-0.22c-1.05,0.37,-2.55,0.6,-3.75,0.6c-9.3,0,-17.47,-6.97,-17.47,-17.32c0,-12.07,9.45,-19.27,20.92,-19.27c11.62,0,20.92,7.35,20.92,18.97m-12.6,-0.15c0,-4.57,-3.22,-8.47,-8.25,-8.47c-5.02,0,-8.4,3.52,-8.4,8.55c0,4.8,3.3,8.32,8.25,8.32c4.95,0,8.4,-3.45,8.4,-8.4" fill="#121618" stroke="none" fill-opacity="1"/>
</g>
</g>
</g>
</svg>
