<svg xmlns="http://www.w3.org/2000/svg" width="280" height="280" viewBox="0 0 280 280">
  <defs>
    <style>
      .cls-1 {
        fill: #000003;
        fill-rule: evenodd;
      }
    </style>
  </defs>
  <path id="Preenchimento_de_Cor_1" data-name="Preenchimento de Cor 1" class="cls-1" d="M139,228c-1.273,2.487,1.656,5.763,1.987,9.99,0.1,1.227.114,2.912-.987,4.01-1.906,1.9-6.518,1.274-8-1-1.255-1.925.459-6.322,0.507-7.926A15.971,15.971,0,0,0,131,226a19.546,19.546,0,0,0-6.176-1.662A15.447,15.447,0,0,0,118,225c-2.579,1.193-5.875,5.795-7.305,14.384-1.42,8.526-.241,14.544-3.695,16.616-0.7.417-3.1,0.659-6,0-4.7-1.069-6.909-3-8-5a9.054,9.054,0,0,1-1-5c0.5-6.968,8.49-10.37,10.992-17.45,1.308-3.7,1.447-7.435.008-10.55-1.595-3.454-5.37-6.875-8-6a5.767,5.767,0,0,0-1.734,1.288A7.766,7.766,0,0,0,92,215c-1.408,2.584-1.253,9.365-4,11a6.23,6.23,0,0,1-4,0,9.8,9.8,0,0,1-6-5,4.28,4.28,0,0,1,0-3c1.009-2.367,4.954-2.684,7.024-4.514C87.15,211.607,88.742,208.433,88,206c-1.145-3.757-7.911-5.978-13.209-4.625C64.636,203.969,62.34,220.914,55,221c-0.761.009-3.057-1.2-5.37-2.873C44.613,214.5,42.53,211.51,43,209a4.325,4.325,0,0,1,1-2c4.069-4.9,15.649-5.979,20.68-12.67,4.791-6.372,3.384-17.463-.68-19.33-0.946-.435-3.485.032-6.731,1.86C55.388,177.919,48.08,184.8,45,184c-2.322-.6-3.5-3.861-4-6-0.7-2.988-.5-7.565,2-9,1.823-1.046,4.116.442,7.722,0.837,4.567,0.5,7.2-.545,8.278-1.837a5.017,5.017,0,0,0,1-2c0.639-6.4-1-13.341-6-17-6.187-4.53-16.051-2.841-21.916,1.32C29.242,152.336,27.5,154.791,24,155a8.229,8.229,0,0,1-7-3,6.962,6.962,0,0,1-1-2c-0.988-2.99-.23-6.343,1-9,1.587-3.427,3.82-5.46,5-6,4.5-2.06,13.964,2.671,16.266,3.066,4.6,0.79,12.362,1.223,15.734-3.066,1.631-2.075,1.693-4.508,1.533-8.67-0.122-3.172-.3-6.23-0.533-9.33a6.887,6.887,0,0,0-2-3c-2.687-2.276-6.554-1.5-12-1-5.668.515-9.186,0.227-11-2a5.3,5.3,0,0,1-1-2,9.722,9.722,0,0,1,7-10c6.537-1.69,11.63,6.187,19.477,5.829,2.147-.1,6.2-0.787,8.523-3.829,2.789-3.652,1.695-8.8,1-11C61.63,79.329,46.8,77.19,45.707,68.021,45.486,66.174,45.716,62.913,48,61a7.549,7.549,0,0,1,7-1c3.886,1.288,5.475,5.258,8.845,11.047,2.913,5,5.291,7.914,8.155,7.953a5.35,5.35,0,0,0,3-1c6.495-4.209,15.079-6.341,15-11a9.023,9.023,0,0,0-2.308-4.075C86.274,61.322,81.832,59.019,81,56a5.925,5.925,0,0,1,0-3c0.909-3.713,5.224-6.116,9-6,2.156,0.066,4.08.619,5,2,1.249,1.876-.034,4.453-0.156,8.317-0.089,2.8.342,4.305,1.156,4.683,1,0.463,2.356-.537,3-1,4.6-3.307,8.251-3.568,11-8a14.82,14.82,0,0,0,2.317-6.614c0.716-8.825-9.4-14.743-7.317-21.386a8.508,8.508,0,0,1,3-4,8.226,8.226,0,0,1,6-2,8.319,8.319,0,0,1,4.629,2.478A10.245,10.245,0,0,1,121,25a76.323,76.323,0,0,1,1.817,12.313c0.319,5.068.141,9.593,3.183,11.687,1.772,1.22,5.086.349,9.834-.207,2.98-.348,5.946-0.655,7.166-2.793a5.683,5.683,0,0,0,.215-4.218C142.007,36.531,139.7,33.317,141,31a6.562,6.562,0,0,1,7-2,5.824,5.824,0,0,1,3,4c0.632,2.611-.666,4.348-1.4,7.471-0.89,3.8-.323,6.554.4,7.529,2.425,3.277,9.4,3.776,14,1,9.751-5.879,4.244-24.935,13-29,3.861-1.792,9.6-.267,12,3a6.1,6.1,0,0,1,1,2c1.562,5.664-7.65,12.711-10,20-1.7,5.271-.961,9.2,0,11a11.934,11.934,0,0,0,10,6,10.15,10.15,0,0,0,5-1c5.379-3.116,4.228-13.161,8-14a4.47,4.47,0,0,1,1,0,8.265,8.265,0,0,1,6.854,6.122c0.245,0.94.877,4.076-.854,5.878-1.551,1.615-4.286,1.041-6.269,1.989A8.468,8.468,0,0,0,199,67c-0.72,5.331,6.462,10.111,11,12a21.87,21.87,0,0,0,3,1,22.456,22.456,0,0,0,9.919-3.513C229.4,72.166,230.927,63.388,238,61c1.871-.632,6.083-1.474,9,1,1.221,1.036,2.68,3.887,2.486,8.586C249.323,74.533,247.959,77.159,247,78c-2.544,2.23-5.682.9-10.388,1.644-3.823.6-8.6,2.406-11.612,6.356a15.405,15.405,0,0,0-3,11c0.475,4.157,2.855,9.775,6,10,2.76,0.2,4.88-4.257,9.183-5.82,1.853-.674,3-0.638,3.817-0.18,2.508,1.408,2.959,7.15.532,9.676-3.187,3.316-9.876-.725-12.532,2.324-2.394,2.748-.47,10.06,4,13,3.233,2.127,9.356,1.394,18.613-1.278,5.09-1.47,11.831-3.549,14.387-.722a4.754,4.754,0,0,1,1,2,7.036,7.036,0,0,1-1,5c-1.123,2.2-2.4,4.52-3,5-3.514,2.809-8.525.924-16.272-.061-7.721-.981-12.154-0.118-13.728,2.061a8.213,8.213,0,0,0-1.054,5.4A9.985,9.985,0,0,0,233,147a15.429,15.429,0,0,0,5.922,1.559c3.033,0.149,5-.728,6.078.441,0.907,0.984.744,2.946-.738,6.252-0.775,1.728-1.71,2.629-2.262,2.748-1.469.318-2.57-1.418-4.91-2.828-1.168-.7-5.022-2.721-7.09-1.172-2.191,1.641-.956,6.327-0.625,7.422A10.579,10.579,0,0,0,232,166c2.473,2.429,6.472,3.323,13.591,2.756,6.958-.554,11.215-2.025,13.409.244,1.192,1.233,1.688,4.109.445,8.81-0.582,2.2-2.85,9.34-7.445,10.19-4.925.911-9.687-6.786-16.4-9.073-6.217-2.117-13.327-1.606-14.6,1.073a16.015,16.015,0,0,0-.4,1.947,5.629,5.629,0,0,0-.392,1.836A4.774,4.774,0,0,0,222,187c2.173,1.927,4.571,1.424,7.941,2.459,1.538,0.473,5.87,2.05,6.059,4.541,0.064,0.838-.925,2.279-2.853,4.02-1.813,1.637-3.555,2.95-4.147,2.98-5.073.26-7.8-12.1-13-12-1.788.036-3.455,1.52-5,4a7.952,7.952,0,0,0-1,2c-1.555,4.684,1.658,9.607,3.294,11.622,3.719,4.581,8.577,5.795,12.661,10.5C227.1,218.441,228.2,220.09,228,222c-0.187,1.788-1.71,2.8-3.8,4.89s-3.071,3.536-5.2,4.11a6.437,6.437,0,0,1-4,0c-5.284-2.006-3.861-12.657-9.672-18.226-1.553-1.489-5.8-4.9-10.328-3.774a9.457,9.457,0,0,0-5.106,3.7A8.136,8.136,0,0,0,188,218c0.072,1.195,1.314,3.922,4.145,6.507,2.51,2.292,4.592,3.291,4.855,5.493a3.263,3.263,0,0,1-1,3,5.5,5.5,0,0,1-.935.362A4.663,4.663,0,0,0,194,234c-1.87,1.123-3.619,1.609-5,1-2.261-1-2.39-4.432-3.859-9.14-1.571-5.035-3.577-7.555-5.141-7.86-0.758-.148-2.86.544-5.168,2.258A17.135,17.135,0,0,0,171,224c-2.631,4.463-1.079,10.878,1.566,15.068,2.072,3.283,7.277,5.969,8.434,10.932a8.113,8.113,0,0,1,0,4c-1.153,4.288-6.244,7.524-11,7a9.363,9.363,0,0,1-6-3c-3.492-4.049-1.881-16.373-2.042-17.713-0.882-7.369-4.171-11.929-5.958-13.287C150.345,222.7,140.868,224.35,139,228ZM111,79c-1.747.171-3.478,2.049-4.271,2.712A5.67,5.67,0,0,0,105,85a6.12,6.12,0,0,0,1.631,3.428A9.411,9.411,0,0,0,109,90c1.452,0.585,3.458-.033,5-1a4.912,4.912,0,0,0,2-3,5.675,5.675,0,0,0-1-5A4.915,4.915,0,0,0,111,79Zm57,6a3.688,3.688,0,0,0-1,2,1.562,1.562,0,0,0,0,1,1.974,1.974,0,0,0,2,1,2.188,2.188,0,0,0,2-2C170.976,85.656,169.156,84.434,168,85Zm-26,27a3.392,3.392,0,0,0-3,3,3.564,3.564,0,0,0,3,4,3.347,3.347,0,0,0,3-2,3.52,3.52,0,0,0,0-3A3.337,3.337,0,0,0,142,112Zm48,11c-1.831.675-3.955,2.492-4,5a4.994,4.994,0,0,0,1,3,5.767,5.767,0,0,0,3,2,5.494,5.494,0,0,0,4,0,5.726,5.726,0,0,0,3-4c0.224-.962.539-3.343-1-5C194.173,122.033,191.349,122.5,190,123ZM77,137a5.721,5.721,0,0,0-3,4,2.185,2.185,0,0,0,0,1c0.477,1.843,3.455,2.314,4.3,2.4,1.471,0.152,3.732.066,4.7-1.4a6.069,6.069,0,0,0,0-4,4.54,4.54,0,0,0-1-2C80.578,135.745,78.206,136.386,77,137Zm56,20a2.623,2.623,0,0,0-2,3,2.942,2.942,0,0,0,2,2,2.418,2.418,0,0,0,2,0,2.623,2.623,0,0,0,1-3A2.726,2.726,0,0,0,133,157Zm75,5a3.146,3.146,0,0,0-3,3,2.146,2.146,0,0,0,1,2,1.486,1.486,0,0,0,1,0c2.415-.736,3.916-1.553,4-2C211.23,163.775,209.822,162,208,162Zm-43,23c-2.733-.143-4.88,2.613-5,5a4.047,4.047,0,0,0,1,3,4.784,4.784,0,0,0,2,1,6.848,6.848,0,0,0,4,0,4.387,4.387,0,0,0,2-2,4.8,4.8,0,0,0,0-4A4.862,4.862,0,0,0,165,185Zm-65,1c-1.581.885-1.205,4.418,0,5a2.3,2.3,0,0,0,1,0,5.442,5.442,0,0,0,2,0,2.144,2.144,0,0,0,.727-0.511A2.181,2.181,0,0,0,104,189a5.347,5.347,0,0,0,0-1C103.611,186.489,101.3,185.275,100,186ZM78,221m111,14M180,45m-2-25M41,113,167,86"/>
</svg>
